<svg width="18" height="18" viewBox="0 0 18 18" fill="none" xmlns="http://www.w3.org/2000/svg">
<path d="M9 18C4.0293 18 0 13.9707 0 9C0 4.0293 4.0293 0 9 0C13.9707 0 18 4.0293 18 9C18 13.9707 13.9707 18 9 18ZM9 16.2C9.94558 16.2 10.8819 16.0138 11.7555 15.6519C12.6291 15.29 13.4229 14.7597 14.0915 14.091C14.7601 13.4224 15.2905 12.6286 15.6523 11.755C16.0142 10.8814 16.2004 9.94513 16.2004 8.99955C16.2004 8.05397 16.0142 7.11766 15.6523 6.24406C15.2905 5.37046 14.7601 4.57669 14.0915 3.90806C13.4229 3.23944 12.6291 2.70906 11.7555 2.3472C10.8819 1.98535 9.94558 1.7991 9 1.7991C7.09032 1.7991 5.25886 2.55772 3.90851 3.90806C2.55817 5.25841 1.79955 7.08987 1.79955 8.99955C1.79955 10.9092 2.55817 12.7407 3.90851 14.091C5.25886 15.4414 7.09032 16.2 9 16.2Z" fill="#755D64"/>
<path d="M8.22421 8.43665C8.3435 8.43665 8.44021 8.33994 8.44021 8.22065L8.44024 6.06627C8.44025 5.6983 8.73855 5.4 9.10652 5.4C9.4745 5.4 9.7728 5.69831 9.7728 6.06629L9.77277 8.22064C9.77277 8.33994 9.86947 8.43665 9.98877 8.43665H12.1668C12.5147 8.43665 12.7968 8.71871 12.7968 9.06665C12.7968 9.41459 12.5147 9.69665 12.1668 9.69665H9.98876C9.86947 9.69665 9.77276 9.79335 9.77276 9.91265V12.0544C9.77276 12.4223 9.47446 12.7206 9.10649 12.7206C8.73851 12.7206 8.44021 12.4223 8.44021 12.0544V9.91265C8.44021 9.79335 8.3435 9.69665 8.22421 9.69665H6.03C5.68206 9.69665 5.4 9.41459 5.4 9.06665C5.4 8.71871 5.68206 8.43665 6.03 8.43665H8.22421Z" fill="#755D64"/>
</svg>
