<svg width="22" height="26" viewBox="0 0 22 26" fill="none" xmlns="http://www.w3.org/2000/svg">
<path d="M5.66841 25.5131C5.1558 25.1721 4.70147 24.7507 4.32291 24.2651C3.90649 23.764 3.52067 23.2381 3.16753 22.6905C2.33885 21.4765 1.68898 20.1497 1.23785 18.7507C0.695909 17.1257 0.433472 15.5681 0.433472 14.0447C0.433472 12.3433 0.801534 10.8581 1.52141 9.61009C2.05504 8.63463 2.83962 7.81948 3.79397 7.24896C4.71885 6.6745 5.78154 6.36013 6.8701 6.33896C7.25116 6.33896 7.66147 6.39421 8.09697 6.49984C8.40978 6.5884 8.79085 6.72815 9.25641 6.90202C9.84872 7.13034 10.1745 7.27009 10.285 7.30421C10.632 7.43096 10.9237 7.48621 11.1528 7.48621C11.3267 7.48621 11.572 7.43096 11.8507 7.34646C12.0075 7.29121 12.3033 7.19371 12.7266 7.01252C13.1458 6.85977 13.4757 6.72896 13.7382 6.63146C14.1403 6.51284 14.5295 6.40315 14.8765 6.3479C15.2878 6.28306 15.7052 6.26588 16.1204 6.29671C16.84 6.34374 17.5487 6.49622 18.224 6.74927C19.3282 7.19371 20.2211 7.88759 20.8857 8.87396C20.6048 9.0471 20.3412 9.24681 20.0984 9.47034C19.57 9.93881 19.1198 10.4888 18.7651 11.0994C18.3014 11.9339 18.061 12.8739 18.0672 13.8286C18.0842 15.001 18.3848 16.0337 18.9772 16.9266C19.4126 17.5884 19.9786 18.1544 20.6403 18.5898C20.9792 18.8181 21.2708 18.975 21.5503 19.0806C21.4195 19.4868 21.2798 19.8801 21.1148 20.2701C20.7408 21.1447 20.2874 21.9831 19.7604 22.775C19.2908 23.4567 18.9227 23.9645 18.6432 24.3025C18.2077 24.8185 17.7885 25.2125 17.3652 25.4871C16.8996 25.7959 16.3495 25.9608 15.7905 25.9608C15.412 25.9754 15.0335 25.9296 14.6693 25.8251C14.3565 25.7195 14.0469 25.605 13.7422 25.4741C13.4255 25.3287 13.0988 25.2057 12.7648 25.1061C11.939 24.894 11.0733 24.8926 10.2468 25.102C9.90803 25.1995 9.58222 25.3133 9.26047 25.453C8.80791 25.6431 8.50728 25.7707 8.33341 25.8251C7.98647 25.9267 7.62653 25.9901 7.26253 26.0112C6.69947 26.0112 6.1746 25.8503 5.6546 25.5245L5.66841 25.5131ZM13.0947 5.51346C12.3585 5.88152 11.6557 6.03834 10.9578 5.98715C10.8481 5.28434 10.9578 4.56527 11.2495 3.77796C11.4978 3.11095 11.8647 2.49436 12.3325 1.95796C12.8265 1.39329 13.426 0.930454 14.0973 0.595398C14.8123 0.227336 15.494 0.0282734 16.1456 -0.000976562C16.2301 0.735148 16.1456 1.45909 15.875 2.24152C15.6246 2.93319 15.2584 3.57722 14.792 4.14602C14.3159 4.71147 13.7316 5.1761 13.0735 5.51265L13.0947 5.51346Z" fill="black"/>
</svg>
