<svg width="33" height="33" viewBox="0 0 33 33" fill="none" xmlns="http://www.w3.org/2000/svg">
<path d="M28.773 21.8923C28.1066 20.7456 27.1165 17.5115 27.1165 13.305C27.1165 10.8696 26.149 8.53383 24.4269 6.8117C22.7048 5.08956 20.369 4.12207 17.9336 4.12207C15.4981 4.12207 13.1624 5.08956 11.4402 6.8117C9.71809 8.53383 8.75061 10.8696 8.75061 13.305C8.75061 17.5127 7.75932 20.7456 7.09296 21.8923C6.94676 22.1426 6.86918 22.4271 6.86805 22.717C6.86693 23.007 6.94229 23.292 7.08655 23.5435C7.2308 23.795 7.43883 24.004 7.68966 24.1494C7.94048 24.2948 8.22522 24.3715 8.51514 24.3717H13.5163C13.6879 25.4188 14.2261 26.3709 15.0348 27.0579C15.8435 27.7449 16.8701 28.1221 17.9312 28.1221C18.9923 28.1221 20.0189 27.7449 20.8276 27.0579C21.6363 26.3709 22.1745 25.4188 22.3461 24.3717H27.352C27.6417 24.3711 27.9261 24.2941 28.1766 24.1485C28.4271 24.003 28.6348 23.7939 28.7788 23.5425C28.9228 23.2911 28.9979 23.0062 28.9967 22.7165C28.9955 22.4267 28.9179 22.1425 28.7718 21.8923H28.773ZM17.9336 26.7263C17.2447 26.7261 16.5761 26.4935 16.0358 26.0662C15.4955 25.6389 15.1151 25.0419 14.9562 24.3717H20.911C20.752 25.0419 20.3716 25.6389 19.8313 26.0662C19.291 26.4935 18.6224 26.7261 17.9336 26.7263ZM27.5533 22.8412C27.5339 22.8772 27.505 22.9073 27.4697 22.928C27.4344 22.9488 27.3941 22.9595 27.3532 22.9589H8.51514C8.4742 22.9595 8.43389 22.9488 8.3986 22.928C8.36331 22.9073 8.33439 22.8772 8.315 22.8412C8.29434 22.8054 8.28346 22.7648 8.28346 22.7234C8.28346 22.6821 8.29434 22.6415 8.315 22.6057C9.20622 21.0752 10.1634 17.5068 10.1634 13.305C10.1634 11.2442 10.982 9.26786 12.4392 7.81067C13.8964 6.35348 15.8728 5.53483 17.9336 5.53483C19.9943 5.53483 21.9707 6.35348 23.4279 7.81067C24.8851 9.26786 25.7038 11.2442 25.7038 13.305C25.7038 17.5056 26.6621 21.0693 27.5533 22.6057C27.574 22.6415 27.5848 22.6821 27.5848 22.7234C27.5848 22.7648 27.574 22.8054 27.5533 22.8412Z" fill="black"/>
</svg>
