<svg width="19" height="24" viewBox="0 0 19 24" fill="none" xmlns="http://www.w3.org/2000/svg">
<path d="M17.1283 0.0457317C17.2008 0.0457317 17.202 0.0453476 17.202 0.0228659C17.202 0.0102374 17.2123 0 17.2249 0H17.8799C17.8925 0 17.9028 0.0102374 17.9028 0.0228659C17.9028 0.0453476 17.904 0.0457317 17.9765 0.0457317C18.0487 0.0457317 18.0503 0.0462348 18.0503 0.068122C18.0503 0.0886829 18.0543 0.0907317 18.0987 0.0932744C18.1409 0.0956799 18.1475 0.098689 18.1501 0.116616C18.1527 0.13478 18.1584 0.137195 18.1985 0.137195C18.2408 0.137195 18.2439 0.138759 18.2439 0.160061C18.2439 0.181399 18.247 0.182927 18.29 0.182927C18.3331 0.182927 18.3361 0.184454 18.3361 0.205793C18.3361 0.224085 18.3407 0.228659 18.3592 0.228659C18.3774 0.228659 18.3822 0.233287 18.3822 0.250665C18.3822 0.270137 18.3876 0.273402 18.4283 0.278963C18.4691 0.284524 18.4744 0.28779 18.4744 0.307262C18.4744 0.32464 18.4793 0.329268 18.4975 0.329268C18.5159 0.329268 18.5205 0.333842 18.5205 0.352134C18.5205 0.371442 18.5248 0.375 18.5482 0.375C18.5716 0.375 18.5759 0.378558 18.5759 0.397866C18.5759 0.416159 18.5805 0.420732 18.5989 0.420732C18.6174 0.420732 18.622 0.425305 18.622 0.443598C18.622 0.46189 18.6266 0.466463 18.645 0.466463C18.6633 0.466463 18.6681 0.471082 18.6681 0.488689C18.6681 0.504787 18.6738 0.511729 18.6888 0.513842C18.7065 0.516338 18.71 0.523143 18.7124 0.560213C18.7149 0.599442 18.7174 0.603659 18.7377 0.603659C18.7566 0.603659 18.7603 0.608095 18.7603 0.631098C18.7603 0.654265 18.7639 0.658537 18.7833 0.658537C18.8048 0.658537 18.8064 0.661582 18.8064 0.704268C18.8064 0.746479 18.8081 0.75 18.8286 0.75C18.8482 0.75 18.8515 0.755277 18.857 0.795201C18.8621 0.832207 18.8669 0.840906 18.8832 0.84322C18.9004 0.845634 18.9036 0.852823 18.906 0.894055C18.9083 0.933412 18.9118 0.942073 18.9256 0.942073C18.9462 0.942073 18.9539 0.974671 18.9539 1.06212C18.9539 1.1231 18.9546 1.125 18.9769 1.125C18.9897 1.125 19 1.13532 19 1.14805L18.9999 1.41997C18.9998 1.74736 18.997 1.78354 18.9715 1.78354C18.9569 1.78354 18.9543 1.79285 18.952 1.85442C18.9495 1.92002 18.9477 1.92552 18.9285 1.92823C18.9113 1.93065 18.9078 1.9369 18.9077 1.96482C18.9075 2.03052 18.8973 2.06707 18.8793 2.06707C18.8659 2.06707 18.861 2.07675 18.8562 2.11281C18.8508 2.15312 18.8475 2.15854 18.8282 2.15854C18.8081 2.15854 18.8064 2.16225 18.8064 2.20427C18.8064 2.24669 18.8047 2.25 18.7838 2.25C18.7631 2.25 18.761 2.25392 18.7584 2.29802C18.756 2.33985 18.753 2.34641 18.7349 2.34896C18.7166 2.35154 18.7142 2.35718 18.7142 2.39698C18.7142 2.43898 18.7126 2.44207 18.6911 2.44207C18.6696 2.44207 18.6681 2.44512 18.6681 2.48781C18.6681 2.53002 18.6664 2.53354 18.6459 2.53354C18.6263 2.53354 18.623 2.53881 18.6174 2.57927C18.6124 2.61501 18.6074 2.625 18.5943 2.625C18.5812 2.625 18.5762 2.63499 18.5713 2.67073C18.5663 2.70676 18.5613 2.71646 18.548 2.71646C18.5363 2.71646 18.5301 2.72434 18.5281 2.74162C18.526 2.75929 18.5192 2.76761 18.5052 2.76959C18.4889 2.7719 18.4841 2.7806 18.479 2.8176C18.4734 2.85753 18.4701 2.86281 18.4505 2.86281C18.43 2.86281 18.4283 2.86633 18.4283 2.90854C18.4283 2.95122 18.4268 2.95427 18.4053 2.95427C18.3838 2.95427 18.3822 2.95731 18.3822 3C18.3822 3.04269 18.3807 3.04573 18.3592 3.04573C18.3377 3.04573 18.3361 3.04878 18.3361 3.09146C18.3361 3.13348 18.3344 3.1372 18.3143 3.1372C18.295 3.1372 18.2917 3.14261 18.2863 3.18293C18.2813 3.22024 18.2768 3.22866 18.2621 3.22866C18.2481 3.22866 18.2439 3.23491 18.2439 3.2561C18.2439 3.27927 18.2403 3.28354 18.2209 3.28354C18.1994 3.28354 18.1978 3.28658 18.1978 3.32927C18.1978 3.37136 18.1961 3.375 18.1758 3.375C18.1561 3.375 18.1532 3.38015 18.1475 3.4253C18.1423 3.46635 18.138 3.47561 18.1237 3.47561C18.1097 3.47561 18.1051 3.4847 18.1002 3.52134C18.0948 3.56166 18.0914 3.56707 18.0722 3.56707C18.0521 3.56707 18.0503 3.57079 18.0503 3.6128C18.0503 3.65549 18.0488 3.65854 18.0273 3.65854C18.0057 3.65854 18.0042 3.66158 18.0042 3.70427C18.0042 3.74629 18.0024 3.75 17.9823 3.75C17.9631 3.75 17.9598 3.75541 17.9544 3.79573C17.9494 3.83304 17.9449 3.84146 17.9301 3.84146C17.9161 3.84146 17.912 3.84772 17.912 3.8689C17.912 3.89207 17.9084 3.89634 17.889 3.89634C17.8674 3.89634 17.8659 3.89939 17.8659 3.94207C17.8659 3.98476 17.8644 3.9878 17.8429 3.9878C17.8213 3.9878 17.8198 3.99085 17.8198 4.03354C17.8198 4.07575 17.8181 4.07927 17.7976 4.07927C17.778 4.07927 17.7747 4.08455 17.7692 4.12447C17.764 4.16148 17.7593 4.17017 17.7429 4.17249C17.7262 4.17486 17.7225 4.18223 17.7202 4.21875C17.7176 4.25798 17.7152 4.2622 17.6948 4.2622C17.6739 4.2622 17.6723 4.26552 17.6723 4.30793C17.6723 4.34995 17.6705 4.35366 17.6504 4.35366C17.6311 4.35366 17.6278 4.35907 17.6224 4.39939C17.6174 4.4367 17.613 4.44512 17.5982 4.44512C17.5842 4.44512 17.5801 4.45138 17.5801 4.47256C17.5801 4.49557 17.5764 4.5 17.5575 4.5C17.5368 4.5 17.5347 4.50392 17.5321 4.54802C17.5297 4.58949 17.5266 4.59643 17.5091 4.5989C17.492 4.60131 17.4884 4.60847 17.486 4.64463C17.4837 4.68057 17.48 4.68796 17.4633 4.69032C17.447 4.69263 17.4422 4.70133 17.4371 4.73834C17.4322 4.77359 17.4271 4.78354 17.4141 4.78354C17.4011 4.78354 17.396 4.79352 17.3911 4.82927C17.3855 4.86973 17.3822 4.875 17.3625 4.875C17.3421 4.875 17.3403 4.87852 17.3403 4.92073C17.3403 4.96342 17.3388 4.96646 17.3173 4.96646C17.2978 4.96646 17.2942 4.97074 17.2942 4.9939C17.2942 5.01707 17.2907 5.02134 17.2712 5.02134C17.2497 5.02134 17.2481 5.02439 17.2481 5.06707C17.2481 5.10976 17.2466 5.11281 17.2251 5.11281C17.2036 5.11281 17.202 5.11585 17.202 5.15854C17.202 5.20122 17.2005 5.20427 17.179 5.20427C17.1575 5.20427 17.1559 5.20731 17.1559 5.25C17.1559 5.29269 17.1544 5.29573 17.1329 5.29573C17.1114 5.29573 17.1098 5.29878 17.1098 5.34146C17.1098 5.38348 17.1081 5.3872 17.088 5.3872C17.0687 5.3872 17.0654 5.39261 17.06 5.43293C17.0552 5.469 17.0503 5.47866 17.0369 5.47866C17.0236 5.47866 17.0187 5.48826 17.014 5.52379C17.009 5.56124 17.0045 5.5694 16.9874 5.57181C16.9728 5.57386 16.9661 5.58194 16.964 5.59985C16.9617 5.6196 16.9563 5.625 16.9387 5.625C16.9176 5.625 16.9162 5.62811 16.9162 5.67531C16.9162 5.72287 16.915 5.72561 16.8932 5.72561C16.8717 5.72561 16.8701 5.72866 16.8701 5.77134C16.8701 5.81403 16.8686 5.81707 16.8471 5.81707C16.8256 5.81707 16.824 5.82012 16.824 5.86281C16.824 5.90549 16.8225 5.90854 16.801 5.90854C16.7794 5.90854 16.7779 5.91158 16.7779 5.95427C16.7779 5.99648 16.7762 6 16.7557 6C16.7361 6 16.7328 6.00527 16.7272 6.04573C16.7222 6.08176 16.7173 6.09146 16.7039 6.09146C16.6922 6.09146 16.686 6.09934 16.684 6.11662C16.6819 6.13442 16.6752 6.1426 16.6608 6.14463C16.6437 6.14704 16.6401 6.1542 16.6378 6.19036C16.6354 6.2263 16.6318 6.23369 16.615 6.23605C16.5987 6.23836 16.5939 6.24706 16.5888 6.28407C16.5833 6.32399 16.58 6.32927 16.5604 6.32927C16.5399 6.32927 16.5382 6.33279 16.5382 6.375C16.5382 6.41769 16.5366 6.42073 16.5151 6.42073C16.4936 6.42073 16.4921 6.42378 16.4921 6.46646C16.4921 6.50888 16.4904 6.5122 16.4695 6.5122C16.4488 6.5122 16.4467 6.51612 16.4442 6.56021C16.4418 6.6013 16.4385 6.60864 16.4216 6.61103C16.4059 6.61325 16.4005 6.62224 16.3957 6.65448C16.3908 6.6865 16.3857 6.69512 16.3717 6.69512C16.3579 6.69512 16.3538 6.70151 16.3538 6.72256C16.3538 6.74557 16.3501 6.75 16.3312 6.75C16.3105 6.75 16.3084 6.75392 16.3058 6.79802C16.3035 6.83925 16.3002 6.84644 16.2831 6.84885C16.2668 6.85117 16.262 6.85987 16.2569 6.89687C16.2519 6.93273 16.247 6.94207 16.2334 6.94207C16.2196 6.94207 16.2149 6.95138 16.21 6.98781C16.2046 7.02812 16.2013 7.03354 16.182 7.03354C16.1619 7.03354 16.1601 7.03725 16.1601 7.07927C16.1601 7.12195 16.1586 7.125 16.1371 7.125C16.1156 7.125 16.114 7.12805 16.114 7.17073C16.114 7.21342 16.1125 7.21646 16.091 7.21646C16.0715 7.21646 16.0679 7.22074 16.0679 7.2439C16.0679 7.26707 16.0644 7.27134 16.0449 7.27134C16.0234 7.27134 16.0218 7.27439 16.0218 7.31707C16.0218 7.35976 16.0203 7.36281 15.9988 7.36281C15.9773 7.36281 15.9757 7.36585 15.9757 7.40854C15.9757 7.45122 15.9742 7.45427 15.9527 7.45427C15.9312 7.45427 15.9296 7.45731 15.9296 7.5C15.9296 7.54221 15.9279 7.54573 15.9075 7.54573C15.8879 7.54573 15.8845 7.55101 15.879 7.59093C15.8739 7.62794 15.8691 7.63664 15.8528 7.63895C15.8357 7.64137 15.8324 7.64856 15.83 7.68979C15.8275 7.73388 15.8254 7.73781 15.8047 7.73781C15.7837 7.73781 15.7821 7.74112 15.7821 7.78354C15.7821 7.82622 15.7806 7.82927 15.7591 7.82927C15.7406 7.82927 15.736 7.83384 15.736 7.85213C15.736 7.87043 15.7314 7.875 15.713 7.875C15.6912 7.875 15.6899 7.87774 15.6899 7.92531C15.6899 7.97287 15.6887 7.97561 15.6669 7.97561C15.6454 7.97561 15.6438 7.97866 15.6438 8.02134C15.6438 8.06403 15.6423 8.06707 15.6208 8.06707C15.5993 8.06707 15.5977 8.07012 15.5977 8.11281C15.5977 8.15502 15.596 8.15854 15.5755 8.15854C15.5559 8.15854 15.5526 8.16381 15.547 8.20427C15.542 8.24001 15.537 8.25 15.5239 8.25C15.5109 8.25 15.5059 8.25994 15.501 8.2952C15.4958 8.33221 15.4911 8.34091 15.4747 8.34322C15.458 8.34559 15.4543 8.35296 15.452 8.38948C15.4494 8.42871 15.447 8.43293 15.4266 8.43293C15.4077 8.43293 15.4041 8.43736 15.4041 8.46037C15.4041 8.48353 15.4005 8.48781 15.381 8.48781C15.3595 8.48781 15.358 8.49085 15.358 8.53354C15.358 8.57622 15.3564 8.57927 15.3349 8.57927C15.3134 8.57927 15.3119 8.58231 15.3119 8.625C15.3119 8.66742 15.3103 8.67073 15.2893 8.67073C15.2686 8.67073 15.2665 8.67466 15.264 8.71875C15.2616 8.75998 15.2583 8.76717 15.2412 8.76959C15.2249 8.7719 15.2201 8.7806 15.215 8.8176C15.2101 8.85286 15.2051 8.86281 15.192 8.86281C15.179 8.86281 15.1739 8.87279 15.169 8.90854C15.1639 8.94522 15.1591 8.95427 15.145 8.95427C15.1325 8.95427 15.1275 8.96074 15.1275 8.97713C15.1275 8.99524 15.1228 9 15.1051 9C15.0849 9 15.0821 9.00487 15.0764 9.05031C15.0707 9.09546 15.0678 9.10061 15.048 9.10061C15.0278 9.10061 15.0261 9.10425 15.0261 9.14634C15.0261 9.18903 15.0245 9.19207 15.003 9.19207C14.9815 9.19207 14.98 9.19512 14.98 9.23781C14.98 9.28049 14.9784 9.28354 14.9569 9.28354C14.9354 9.28354 14.9338 9.28658 14.9338 9.32927C14.9338 9.37129 14.9321 9.375 14.912 9.375C14.8927 9.375 14.8894 9.38041 14.884 9.42073C14.8792 9.45681 14.8743 9.46646 14.861 9.46646C14.8476 9.46646 14.8427 9.47612 14.8379 9.5122C14.8329 9.5495 14.8285 9.55793 14.8137 9.55793C14.7997 9.55793 14.7955 9.56418 14.7955 9.58537C14.7955 9.60853 14.792 9.61281 14.7725 9.61281C14.751 9.61281 14.7494 9.61585 14.7494 9.65854C14.7494 9.70075 14.7477 9.70427 14.7273 9.70427C14.7076 9.70427 14.7043 9.70954 14.6987 9.75C14.6931 9.79046 14.6898 9.79573 14.6702 9.79573C14.6497 9.79573 14.648 9.79925 14.648 9.84146C14.648 9.88415 14.6465 9.8872 14.625 9.8872C14.6032 9.8872 14.6019 9.88994 14.6019 9.9375C14.6019 9.98476 14.6006 9.98781 14.5794 9.98781C14.559 9.98781 14.5566 9.99202 14.554 10.0312C14.5516 10.0683 14.5482 10.0751 14.5305 10.0776C14.5154 10.0797 14.5097 10.0867 14.5097 10.1028C14.5097 10.1203 14.5049 10.125 14.4871 10.125C14.4664 10.125 14.4644 10.1289 14.4618 10.173C14.4594 10.2145 14.4562 10.2214 14.4387 10.2239C14.4216 10.2263 14.418 10.2335 14.4157 10.2696C14.4134 10.3056 14.4097 10.313 14.3929 10.3153C14.3766 10.3176 14.3719 10.3263 14.3667 10.3633C14.3612 10.4033 14.3579 10.4085 14.3383 10.4085C14.3178 10.4085 14.3161 10.4121 14.3161 10.4543C14.3161 10.497 14.3145 10.5 14.293 10.5C14.2715 10.5 14.27 10.503 14.27 10.5457C14.27 10.5877 14.2682 10.5915 14.2481 10.5915C14.2289 10.5915 14.2255 10.5969 14.2201 10.6372C14.2152 10.6745 14.2107 10.6829 14.1959 10.6829C14.1819 10.6829 14.1778 10.6892 14.1778 10.7104C14.1778 10.7335 14.1742 10.7378 14.1547 10.7378C14.1332 10.7378 14.1317 10.7409 14.1317 10.7835C14.1317 10.8262 14.1301 10.8293 14.1086 10.8293C14.0871 10.8293 14.0856 10.8323 14.0856 10.875C14.0856 10.9174 14.084 10.9207 14.063 10.9207C14.0423 10.9207 14.0402 10.9247 14.0377 10.9688C14.0352 11.0106 14.0322 11.0171 14.0141 11.0197C13.9876 11.0234 13.985 11.0579 14.0112 11.0579C14.0258 11.0579 14.0301 11.0668 14.0353 11.1082C14.0402 11.1478 14.0451 11.1585 14.0578 11.1585C14.0761 11.1585 14.0856 11.1916 14.0856 11.2557C14.0856 11.2923 14.0876 11.2957 14.1086 11.2957C14.1301 11.2957 14.1317 11.2988 14.1317 11.3408C14.1317 11.3806 14.1341 11.3863 14.1524 11.3888C14.1716 11.3916 14.1734 11.3971 14.1759 11.4627C14.1785 11.5311 14.1793 11.5335 14.2012 11.5335C14.2238 11.5335 14.2239 11.534 14.2239 11.625V11.6934C14.2239 11.7061 14.2342 11.7165 14.2469 11.7165C14.2597 11.7165 14.27 11.7268 14.27 11.7395V11.9312C14.27 11.9439 14.2803 11.9543 14.293 11.9543C14.316 11.9543 14.3161 11.9544 14.3161 12.0434C14.3162 12.0925 14.3189 12.1666 14.3221 12.2081C14.327 12.2708 14.3307 12.2835 14.3438 12.2835C14.3579 12.2835 14.36 12.3017 14.3643 12.4608C14.367 12.5582 14.367 12.7476 14.3643 12.8815C14.3599 13.1027 14.3581 13.125 14.3438 13.125C14.3303 13.125 14.3273 13.14 14.3221 13.2362C14.3188 13.2973 14.3161 13.4126 14.3161 13.4923V13.6141C14.3161 13.6269 14.3058 13.6372 14.293 13.6372C14.2803 13.6372 14.27 13.6475 14.27 13.6602V14.044C14.27 14.0568 14.2597 14.0671 14.2469 14.0671C14.2342 14.0671 14.2239 14.0774 14.2239 14.0901V14.3733C14.2239 14.386 14.2136 14.3963 14.2009 14.3963C14.1883 14.3963 14.1781 14.4064 14.1779 14.419L14.1757 14.5587C14.1732 14.7192 14.1729 14.7211 14.1524 14.724C14.132 14.7268 14.1317 14.7288 14.1317 14.8634V14.9769C14.1317 14.9897 14.1214 15 14.1086 15C14.0959 15 14.0856 15.0103 14.0856 15.023L14.0855 15.1075C14.0854 15.2465 14.0793 15.2835 14.0567 15.2835C14.0411 15.2835 14.0395 15.2916 14.0394 15.3681C14.0392 15.4844 14.0323 15.5213 14.0106 15.5213C13.9953 15.5213 13.9934 15.529 13.9934 15.5886C13.9934 15.6255 13.9907 15.6873 13.9874 15.7258C13.9825 15.7836 13.9787 15.7957 13.9656 15.7957C13.9456 15.7957 13.9383 15.8354 13.9382 15.9444C13.9381 16.0236 13.9378 16.0244 13.915 16.0244C13.9023 16.0244 13.892 16.0347 13.892 16.0474V16.2026C13.892 16.2153 13.8816 16.2256 13.8689 16.2256C13.8562 16.2256 13.8459 16.2359 13.8459 16.2487V16.4312C13.8459 16.4439 13.8355 16.4543 13.8228 16.4543C13.7999 16.4543 13.7998 16.4547 13.7998 16.54C13.7998 16.651 13.7933 16.6829 13.7709 16.6829C13.7551 16.6829 13.7537 16.6912 13.7537 16.779C13.7537 16.8749 13.7536 16.875 13.7309 16.875C13.7084 16.875 13.7082 16.8759 13.7056 16.9688C13.7031 17.0581 13.702 17.0626 13.6822 17.0654C13.6625 17.0682 13.6614 17.0724 13.6613 17.1477C13.6612 17.2566 13.6539 17.2957 13.6337 17.2957C13.6198 17.2957 13.6166 17.3089 13.6109 17.3918C13.6052 17.4753 13.6022 17.4878 13.588 17.4878C13.5678 17.4878 13.56 17.5211 13.56 17.6079C13.56 17.6688 13.5593 17.6707 13.537 17.6707C13.5242 17.6707 13.5139 17.6811 13.5139 17.6938V17.8398C13.5139 17.8525 13.5036 17.8628 13.4909 17.8628C13.4781 17.8628 13.4678 17.8731 13.4678 17.8859V17.9543C13.4678 18.0454 13.4677 18.0457 13.4451 18.0457C13.4226 18.0457 13.4223 18.0466 13.4197 18.1395C13.4172 18.2288 13.4161 18.2334 13.3964 18.2362C13.3774 18.2388 13.3756 18.244 13.3755 18.2956C13.3754 18.3834 13.3669 18.4207 13.3471 18.4207C13.3325 18.4207 13.3299 18.43 13.3276 18.4916C13.3251 18.5572 13.3234 18.5627 13.3042 18.5654C13.2852 18.5681 13.2834 18.5732 13.2833 18.6249C13.2832 18.7134 13.2747 18.75 13.2545 18.75C13.2397 18.75 13.2373 18.7573 13.2373 18.8036C13.2373 18.8944 13.2278 18.9421 13.2096 18.9421C13.1908 18.9421 13.1823 18.981 13.1821 19.0678C13.182 19.1227 13.1811 19.125 13.1589 19.125C13.1363 19.125 13.1359 19.1262 13.1359 19.1982C13.1359 19.2701 13.1355 19.2713 13.1128 19.2713C13.1001 19.2713 13.0898 19.2817 13.0898 19.2944V19.4312C13.0898 19.4439 13.0795 19.4543 13.0667 19.4543C13.0441 19.4543 13.0437 19.4555 13.0437 19.5274C13.0437 19.5991 13.0432 19.6006 13.021 19.6006C12.9986 19.6006 12.9982 19.6018 12.9956 19.6898C12.9931 19.7744 12.9919 19.7791 12.9722 19.7819C12.9528 19.7846 12.9515 19.7893 12.9515 19.8528C12.9515 19.9192 12.951 19.9207 12.9284 19.9207C12.9061 19.9207 12.9054 19.9226 12.9054 19.9836C12.9054 20.0718 12.8977 20.1037 12.8766 20.1037C12.8624 20.1037 12.8593 20.1107 12.8592 20.1425C12.859 20.2117 12.8492 20.25 12.8316 20.25C12.8141 20.25 12.8042 20.2883 12.8041 20.3575C12.804 20.3928 12.8019 20.3963 12.7809 20.3963C12.7682 20.3963 12.7579 20.4067 12.7579 20.4194V20.5562C12.7579 20.5689 12.7475 20.5793 12.7348 20.5793C12.7121 20.5793 12.7118 20.5805 12.7118 20.6524C12.7118 20.7241 12.7113 20.7256 12.689 20.7256C12.6666 20.7256 12.6663 20.7268 12.6637 20.8148C12.6612 20.8994 12.66 20.9041 12.6403 20.9069C12.6209 20.9096 12.6196 20.9143 12.6196 20.9778C12.6196 21.0439 12.6189 21.0457 12.5969 21.0457C12.575 21.0457 12.5741 21.0482 12.5715 21.1166C12.569 21.1822 12.5673 21.1877 12.5481 21.1904C12.5287 21.1932 12.5274 21.1978 12.5274 21.2613C12.5274 21.3277 12.5268 21.3293 12.5043 21.3293C12.4822 21.3293 12.4813 21.3316 12.4811 21.3864C12.481 21.4776 12.4729 21.5108 12.4502 21.514C12.4324 21.5165 12.4303 21.5233 12.4278 21.5877C12.4252 21.6561 12.4244 21.6585 12.4025 21.6585C12.3804 21.6585 12.3798 21.6604 12.3798 21.7271C12.3798 21.7942 12.3793 21.7957 12.3568 21.7957C12.3341 21.7957 12.3337 21.7969 12.3337 21.8689C12.3337 21.9409 12.3333 21.9421 12.3107 21.9421C12.2881 21.9421 12.2876 21.9436 12.2876 22.0107C12.2876 22.0774 12.287 22.0793 12.265 22.0793C12.2431 22.0793 12.2422 22.0817 12.2396 22.1502C12.2371 22.2157 12.2354 22.2213 12.2162 22.224C12.1968 22.2267 12.1954 22.2313 12.1954 22.2948C12.1954 22.3612 12.1949 22.3628 12.1724 22.3628C12.1503 22.3628 12.1493 22.3651 12.1492 22.42C12.1491 22.5091 12.1407 22.5457 12.1205 22.5457C12.1067 22.5457 12.1032 22.5527 12.1031 22.58C12.1029 22.6485 12.0931 22.6818 12.0721 22.6847C12.0543 22.6872 12.0523 22.694 12.0498 22.7584C12.0472 22.8268 12.0463 22.8293 12.0245 22.8293C12.0024 22.8293 12.0018 22.8311 12.0018 22.8979C12.0018 22.9649 12.0013 22.9665 11.9787 22.9665C11.9562 22.9665 11.9557 22.968 11.9557 23.0351C11.9557 23.1021 11.9552 23.1037 11.9326 23.1037C11.9117 23.1037 11.9096 23.1072 11.9095 23.1425C11.9093 23.2138 11.8996 23.25 11.8807 23.25C11.8665 23.25 11.8635 23.257 11.8635 23.29C11.8635 23.3557 11.8542 23.3872 11.8347 23.3872C11.8199 23.3872 11.8174 23.3944 11.8174 23.4375C11.8174 23.4851 11.8161 23.4878 11.7943 23.4878C11.7718 23.4878 11.7713 23.4893 11.7713 23.5564C11.7713 23.6235 11.7708 23.625 11.7482 23.625C11.7278 23.625 11.7252 23.6288 11.7251 23.6593C11.7249 23.7278 11.715 23.761 11.6941 23.764C11.6804 23.7659 11.6736 23.7744 11.6716 23.7919C11.6693 23.8117 11.6638 23.8171 11.6462 23.8171C11.6284 23.8171 11.6238 23.8218 11.6238 23.8399C11.6238 23.8582 11.6192 23.8628 11.6007 23.8628C11.5823 23.8628 11.5777 23.8674 11.5777 23.8857C11.5777 23.904 11.5731 23.9085 11.5546 23.9085C11.5362 23.9085 11.5316 23.9131 11.5316 23.9314C11.5316 23.9527 11.5285 23.9543 11.4855 23.9543C11.4424 23.9543 11.4394 23.9558 11.4394 23.9771C11.4394 23.9898 11.4291 24 11.4165 24H10.7062C10.6935 24 10.6833 23.9898 10.6833 23.9771C10.6833 23.9645 10.6731 23.9543 10.6604 23.9543H10.2728C10.2602 23.9543 10.2499 23.944 10.2499 23.9314C10.2499 23.919 10.2399 23.9088 10.2274 23.9086L10.0632 23.9064C9.87749 23.904 9.8765 23.9039 9.87357 23.8834C9.87067 23.8631 9.86849 23.8628 9.73872 23.8628C9.58125 23.8628 9.5492 23.858 9.5492 23.8342C9.5492 23.8184 9.5406 23.8171 9.44086 23.817C9.30071 23.8168 9.26337 23.8108 9.26337 23.7884C9.26337 23.773 9.2552 23.7713 9.17808 23.7712C9.06092 23.7711 9.02364 23.7642 9.02364 23.7427C9.02364 23.728 9.01624 23.7256 8.97062 23.7255C8.94147 23.7255 8.88961 23.7229 8.85537 23.7196C8.80494 23.7149 8.79313 23.7108 8.79313 23.6981C8.79313 23.6802 8.74483 23.6707 8.65354 23.6707C8.60205 23.6707 8.59951 23.6697 8.59951 23.6479C8.59951 23.6352 8.58927 23.625 8.57664 23.625H8.39186C8.37924 23.625 8.369 23.6148 8.369 23.6021C8.369 23.5797 8.36777 23.5793 8.29524 23.5793C8.2227 23.5793 8.22147 23.5789 8.22147 23.5564C8.22147 23.5438 8.21124 23.5335 8.19861 23.5335H8.05071C8.03809 23.5335 8.02785 23.5233 8.02785 23.5107C8.02785 23.498 8.01761 23.4878 8.00498 23.4878H7.93565C7.84387 23.4878 7.84344 23.4877 7.84344 23.4653C7.84344 23.4436 7.841 23.4428 7.77199 23.4402C7.70586 23.4377 7.70031 23.436 7.69758 23.4169C7.69489 23.3981 7.68969 23.3963 7.63765 23.3962C7.54846 23.3961 7.51151 23.3877 7.51151 23.3677C7.51151 23.3541 7.50452 23.3506 7.47694 23.3505C7.41166 23.3503 7.37321 23.3402 7.37321 23.3232C7.37321 23.3068 7.32611 23.2957 7.25666 23.2957C7.22977 23.2957 7.22568 23.2927 7.22568 23.2729C7.22568 23.2505 7.22414 23.25 7.15653 23.25C7.08892 23.25 7.08738 23.2495 7.08738 23.2271C7.08738 23.2048 7.08584 23.2043 7.01823 23.2043C7.00639 23.2043 6.99313 23.2028 6.98202 23.1987C6.44672 23.0018 9.00725 20.3684 9.4373 18.5713C9.52085 18.2222 9.30556 17.8715 8.95643 17.7879C8.6073 17.7044 8.25655 17.9197 8.173 18.2688C7.76024 19.9936 6.16704 22.8863 5.75717 22.7018C5.7446 22.6961 5.73185 22.6896 5.71816 22.6879C5.67743 22.6828 5.66745 22.6783 5.66745 22.6648C5.66745 22.6516 5.65761 22.6467 5.62135 22.6418C5.58532 22.6369 5.57525 22.6319 5.57525 22.6189C5.57525 22.606 5.56523 22.601 5.52968 22.5961C5.49238 22.591 5.48361 22.5863 5.48128 22.5701C5.47884 22.5531 5.47159 22.5499 5.43003 22.5475C5.38558 22.545 5.38162 22.543 5.38162 22.5224C5.38162 22.5016 5.37828 22.5 5.33552 22.5C5.29249 22.5 5.28942 22.4985 5.28942 22.4771C5.28942 22.4558 5.28635 22.4543 5.24332 22.4543C5.20096 22.4543 5.19722 22.4525 5.19722 22.4326C5.19722 22.4135 5.19176 22.4102 5.15112 22.4048C5.11475 22.4 5.10501 22.3952 5.10501 22.382C5.10501 22.3687 5.09528 22.3639 5.05891 22.3591C5.0213 22.3541 5.01281 22.3497 5.01281 22.3351C5.01281 22.3212 5.0065 22.3171 4.98515 22.3171C4.96179 22.3171 4.95749 22.3135 4.95749 22.2942C4.95749 22.2729 4.95442 22.2713 4.91139 22.2713C4.86884 22.2713 4.86529 22.2697 4.86529 22.2493C4.86529 22.2299 4.85997 22.2266 4.81972 22.2211C4.78241 22.216 4.77365 22.2113 4.77131 22.1951C4.76932 22.1812 4.76093 22.1744 4.74312 22.1724C4.7232 22.1701 4.71776 22.1647 4.71776 22.1473C4.71776 22.1266 4.71435 22.125 4.67166 22.125C4.62863 22.125 4.62556 22.1235 4.62556 22.1021C4.62556 22.0808 4.62249 22.0793 4.57946 22.0793C4.53643 22.0793 4.53336 22.0777 4.53336 22.0564C4.53336 22.0351 4.53028 22.0335 4.48725 22.0335C4.44422 22.0335 4.44115 22.032 4.44115 22.0107C4.44115 21.9924 4.43654 21.9878 4.4181 21.9878C4.39966 21.9878 4.39505 21.9832 4.39505 21.9649C4.39505 21.9436 4.39198 21.9421 4.34895 21.9421C4.30592 21.9421 4.30285 21.9405 4.30285 21.9192C4.30285 21.8999 4.29854 21.8963 4.27519 21.8963C4.25212 21.8963 4.24753 21.8927 4.24753 21.8743C4.24753 21.8549 4.24222 21.8516 4.20143 21.846C4.16063 21.8405 4.15532 21.8372 4.15532 21.8177C4.15532 21.8004 4.15047 21.7957 4.13227 21.7957C4.11383 21.7957 4.10922 21.7912 4.10922 21.7729C4.10922 21.7515 4.10615 21.75 4.06312 21.75C4.02009 21.75 4.01702 21.7485 4.01702 21.7271C4.01702 21.7078 4.01271 21.7043 3.98936 21.7043C3.96617 21.7043 3.9617 21.7007 3.9617 21.6819C3.9617 21.6617 3.95745 21.6593 3.9179 21.6568C3.88053 21.6544 3.87367 21.6509 3.87115 21.6334C3.86902 21.6185 3.86203 21.6128 3.8458 21.6128C3.82828 21.6128 3.82339 21.608 3.82339 21.5908C3.82339 21.5713 3.81808 21.5681 3.77729 21.5625C3.74031 21.5575 3.73119 21.5528 3.73119 21.5388C3.73119 21.5263 3.72466 21.5213 3.70814 21.5213C3.68986 21.5213 3.68509 21.5167 3.68509 21.4991C3.68509 21.4816 3.67965 21.4762 3.65973 21.4739C3.64178 21.4719 3.63354 21.4652 3.63149 21.4509C3.62919 21.4348 3.62049 21.4296 3.5877 21.4247C3.55244 21.4195 3.54678 21.4156 3.54678 21.3968C3.54678 21.3787 3.54213 21.375 3.51912 21.375C3.49577 21.375 3.49146 21.3714 3.49146 21.3521C3.49146 21.3338 3.48685 21.3293 3.46841 21.3293C3.44997 21.3293 3.44536 21.3247 3.44536 21.3064C3.44536 21.2851 3.44229 21.2835 3.39926 21.2835C3.35623 21.2835 3.35316 21.282 3.35316 21.2607C3.35316 21.2424 3.34855 21.2378 3.33011 21.2378C3.31183 21.2378 3.30706 21.2332 3.30706 21.2155C3.30706 21.1981 3.30162 21.1927 3.2817 21.1904C3.26379 21.1884 3.25551 21.1816 3.25348 21.1675C3.25168 21.155 3.24299 21.1464 3.23043 21.1446C3.21793 21.1429 3.20917 21.1342 3.2074 21.122C3.20507 21.1058 3.1963 21.101 3.159 21.096C3.11875 21.0905 3.11343 21.0872 3.11343 21.0677C3.11343 21.0504 3.10858 21.0457 3.09038 21.0457C3.07194 21.0457 3.06733 21.0412 3.06733 21.0229C3.06733 21.0046 3.06272 21 3.04428 21C3.02584 21 3.02123 20.9954 3.02123 20.9771C3.02123 20.9588 3.01662 20.9543 2.99818 20.9543C2.97998 20.9543 2.97513 20.9496 2.97513 20.9323C2.97513 20.9128 2.96982 20.9095 2.92902 20.904C2.89204 20.8989 2.88292 20.8942 2.88292 20.8802C2.88292 20.8677 2.87639 20.8628 2.85987 20.8628C2.84143 20.8628 2.83682 20.8582 2.83682 20.8399C2.83682 20.8216 2.83221 20.8171 2.81377 20.8171C2.7955 20.8171 2.79072 20.8125 2.79072 20.7948C2.79072 20.7773 2.78528 20.7719 2.76536 20.7697C2.74745 20.7676 2.73917 20.7609 2.73714 20.7467C2.73534 20.7343 2.72666 20.7257 2.71409 20.7239C2.69983 20.7219 2.69305 20.7137 2.69099 20.6959C2.6887 20.6761 2.68326 20.6707 2.66564 20.6707C2.64784 20.6707 2.6432 20.666 2.6432 20.6479C2.6432 20.6296 2.63859 20.625 2.62014 20.625C2.6017 20.625 2.59709 20.6204 2.59709 20.6021C2.59709 20.5838 2.59248 20.5793 2.57404 20.5793C2.5556 20.5793 2.55099 20.5747 2.55099 20.5564C2.55099 20.5371 2.54669 20.5335 2.52333 20.5335C2.49998 20.5335 2.49567 20.53 2.49567 20.5107C2.49567 20.4924 2.49106 20.4878 2.47262 20.4878C2.45418 20.4878 2.44957 20.4832 2.44957 20.4649C2.44957 20.4466 2.44496 20.4421 2.42652 20.4421C2.40808 20.4421 2.40347 20.4375 2.40347 20.4192C2.40347 20.4009 2.39886 20.3963 2.38042 20.3963C2.36198 20.3963 2.35737 20.3918 2.35737 20.3735C2.35737 20.3552 2.35276 20.3506 2.33432 20.3506C2.33417 20.3506 2.33402 20.3506 2.33387 20.3506C2.30883 20.3505 2.30403 20.3166 2.29043 20.2955C2.24602 20.2269 2.27548 20.1347 2.35123 20.1039C3.00187 19.8391 3.27677 19.6963 3.60031 19.5471C4.26692 19.122 4.92141 18.6623 5.48261 18.1935C6.03676 17.7305 6.53327 17.2313 6.8511 16.7215C7.04104 16.4169 6.94807 16.016 6.64345 15.8261C6.33883 15.6361 5.93791 15.7291 5.74797 16.0337C5.53669 16.3726 5.16097 16.7682 4.64911 17.1958C4.14429 17.6176 3.54297 17.9543 2.90134 18.451C2.47176 18.7327 2.19456 19.0871 1.77531 19.3672C1.65537 19.4474 1.5381 19.3171 1.39385 19.3171C1.3754 19.3171 1.37079 19.3125 1.37079 19.2942C1.37079 19.2761 1.36615 19.2713 1.34835 19.2713C1.33073 19.2713 1.32529 19.2659 1.323 19.2462C1.32095 19.2285 1.31414 19.2202 1.30013 19.2182C1.28379 19.2159 1.27903 19.2072 1.27391 19.1702C1.26838 19.1303 1.26505 19.125 1.24545 19.125C1.22794 19.125 1.22327 19.1202 1.22327 19.1021C1.22327 19.0838 1.21866 19.0793 1.20022 19.0793C1.18195 19.0793 1.17717 19.0747 1.17717 19.057C1.17717 19.0409 1.17144 19.034 1.15642 19.0319C1.13872 19.0294 1.13526 19.0226 1.13286 18.9855C1.13033 18.9463 1.12787 18.9421 1.10751 18.9421C1.08861 18.9421 1.08497 18.9376 1.08497 18.9146C1.08497 18.8915 1.08138 18.8872 1.06191 18.8872C1.04074 18.8872 1.03886 18.8838 1.03886 18.846C1.03886 18.8082 1.03698 18.8049 1.01581 18.8049C0.996349 18.8049 0.992762 18.8006 0.992762 18.7774C0.992762 18.7546 0.989084 18.75 0.970579 18.75C0.950949 18.75 0.947657 18.7447 0.942051 18.7043C0.936445 18.6638 0.933153 18.6585 0.913523 18.6585C0.896004 18.6585 0.891339 18.6537 0.891339 18.6357C0.891339 18.6174 0.886729 18.6128 0.868288 18.6128C0.846777 18.6128 0.845238 18.6098 0.845238 18.5671C0.845238 18.5244 0.843698 18.5213 0.822187 18.5213C0.802723 18.5213 0.799136 18.5171 0.799136 18.4939C0.799136 18.4707 0.795549 18.4665 0.776085 18.4665C0.754574 18.4665 0.753035 18.4634 0.753035 18.4207C0.753035 18.378 0.751495 18.375 0.729984 18.375C0.711543 18.375 0.706933 18.3704 0.706933 18.3521C0.706933 18.3338 0.702323 18.3293 0.683883 18.3293C0.662372 18.3293 0.660832 18.3262 0.660832 18.2835C0.660832 18.2413 0.659126 18.2378 0.638648 18.2378C0.619055 18.2378 0.615726 18.2325 0.610194 18.1926C0.605067 18.1556 0.60031 18.1469 0.583972 18.1446C0.569957 18.1426 0.563152 18.1343 0.561105 18.1166C0.559095 18.0993 0.552871 18.0915 0.541216 18.0915C0.527856 18.0915 0.522915 18.0818 0.517917 18.0457C0.512311 18.0053 0.50902 18 0.48939 18C0.468911 18 0.467206 17.9965 0.467206 17.9543C0.467206 17.9116 0.465666 17.9085 0.444155 17.9085C0.422644 17.9085 0.421104 17.9055 0.421104 17.8628C0.421104 17.8201 0.419564 17.8171 0.398053 17.8171C0.376542 17.8171 0.375003 17.814 0.375003 17.7713C0.375003 17.7287 0.373463 17.7256 0.351952 17.7256C0.330155 17.7256 0.328901 17.7229 0.328901 17.6753C0.328901 17.6277 0.327647 17.625 0.30585 17.625C0.28434 17.625 0.2828 17.622 0.2828 17.5793C0.2828 17.5368 0.281168 17.5335 0.260228 17.5335C0.239501 17.5335 0.237436 17.5296 0.234873 17.4855C0.232494 17.4446 0.229202 17.4371 0.212467 17.4347C0.191528 17.4318 0.181681 17.3985 0.181478 17.33C0.181385 17.2996 0.178795 17.2957 0.158326 17.2957C0.135791 17.2957 0.135275 17.2942 0.135275 17.2271C0.135275 17.1601 0.134759 17.1585 0.112224 17.1585C0.0897082 17.1585 0.0891735 17.157 0.0891735 17.0906C0.0891735 17.0271 0.087818 17.0224 0.0684278 17.0197C0.0483091 17.0169 0.0476083 17.0132 0.0451003 16.9002C0.0427584 16.7941 0.0409885 16.7835 0.0256091 16.7835C0.0124978 16.7835 0.00738938 16.7741 0.00288065 16.7414C-0.00378562 16.6932 0.000124089 16.6829 0.0251756 16.6829C0.0416984 16.6829 0.0430719 16.6759 0.0430719 16.5915V16.5231C0.0430719 16.5103 0.0533922 16.5 0.0661229 16.5C0.0876338 16.5 0.0891735 16.497 0.0891735 16.4543C0.0891735 16.4119 0.0908333 16.4085 0.111616 16.4085C0.129236 16.4085 0.134676 16.4031 0.136972 16.3834C0.139028 16.3656 0.145805 16.3574 0.160068 16.3554C0.172636 16.3536 0.181322 16.345 0.183119 16.3325C0.185148 16.3184 0.193427 16.3116 0.211342 16.3096C0.231258 16.3073 0.236698 16.3019 0.236698 16.2845C0.236698 16.2638 0.24011 16.2622 0.2828 16.2622C0.325831 16.2622 0.328901 16.2607 0.328901 16.2393C0.328901 16.217 0.330441 16.2165 0.398053 16.2165C0.465666 16.2165 0.467206 16.216 0.467206 16.1936C0.467206 16.1711 0.468432 16.1707 0.540968 16.1707C0.613504 16.1707 0.61473 16.1703 0.61473 16.1479C0.61473 16.1352 0.624968 16.125 0.637598 16.125H0.776271C0.788899 16.125 0.799136 16.1148 0.799136 16.1021C0.799136 16.0818 0.803009 16.0793 0.833712 16.0792C0.898983 16.079 0.937441 16.0689 0.937441 16.0519C0.937441 16.0355 0.984538 16.0244 1.05399 16.0244C1.08088 16.0244 1.08497 16.0214 1.08497 16.0015C1.08497 15.9799 1.08773 15.9787 1.13568 15.9787C1.17911 15.9787 1.18639 15.9762 1.18639 15.9615C1.18639 15.9422 1.21813 15.9329 1.28435 15.9329C1.32124 15.9329 1.32469 15.931 1.32469 15.9101C1.32469 15.8877 1.32623 15.8872 1.39385 15.8872C1.46146 15.8872 1.463 15.8867 1.463 15.8643C1.463 15.843 1.46607 15.8415 1.5091 15.8415C1.55213 15.8415 1.5552 15.8399 1.5552 15.8186C1.5552 15.7962 1.55674 15.7957 1.62435 15.7957C1.69196 15.7957 1.69351 15.7952 1.69351 15.7729C1.69351 15.7512 1.69627 15.75 1.74422 15.75C1.79188 15.75 1.79493 15.7487 1.79493 15.7276C1.79493 15.7071 1.79888 15.705 1.84334 15.7025C1.88462 15.7001 1.89216 15.6968 1.89454 15.6802C1.89746 15.66 1.93093 15.6497 1.99482 15.6495C2.01818 15.6494 2.02475 15.6452 2.02709 15.6288C2.02967 15.6109 2.03628 15.6079 2.07845 15.6055C2.1229 15.6029 2.12686 15.6009 2.12686 15.5803C2.12686 15.5595 2.1302 15.5579 2.17296 15.5579C2.21599 15.5579 2.21906 15.5564 2.21906 15.5351C2.21906 15.5138 2.22218 15.5122 2.26452 15.5122C2.30464 15.5122 2.31032 15.5098 2.31292 15.4916C2.3155 15.4737 2.32211 15.4707 2.36428 15.4683C2.40873 15.4657 2.41269 15.4637 2.41269 15.4431C2.41269 15.4224 2.41603 15.4207 2.45879 15.4207C2.50182 15.4207 2.50489 15.4192 2.50489 15.3979C2.50489 15.3762 2.50766 15.375 2.5556 15.375C2.60324 15.375 2.60631 15.3736 2.60631 15.3526C2.60631 15.3324 2.61056 15.33 2.65011 15.3275C2.68693 15.3251 2.69436 15.3215 2.69675 15.3049C2.69908 15.2887 2.70785 15.284 2.74515 15.2789C2.7807 15.274 2.79072 15.269 2.79072 15.2561C2.79072 15.2431 2.80079 15.2381 2.83682 15.2332C2.87285 15.2283 2.88292 15.2233 2.88292 15.2104C2.88292 15.1974 2.89299 15.1924 2.92902 15.1875C2.96529 15.1826 2.97513 15.1776 2.97513 15.1644C2.97513 15.151 2.9851 15.1464 3.02584 15.1414C3.07136 15.1357 3.07655 15.1329 3.07655 15.1133C3.07655 15.0932 3.08022 15.0915 3.12265 15.0915C3.16568 15.0915 3.16875 15.0899 3.16875 15.0686C3.16875 15.0473 3.17182 15.0457 3.21485 15.0457C3.25788 15.0457 3.26096 15.0442 3.26096 15.0229C3.26096 15.0015 3.26403 15 3.30706 15C3.34961 15 3.35316 14.9983 3.35316 14.978C3.35316 14.9586 3.35848 14.9553 3.39872 14.9498C3.43603 14.9447 3.4448 14.94 3.44713 14.9238C3.44951 14.9072 3.45696 14.9035 3.49319 14.9012C3.52964 14.8989 3.53686 14.8953 3.53929 14.8783C3.54134 14.8641 3.54958 14.8574 3.56753 14.8553C3.58527 14.8533 3.59289 14.8472 3.59289 14.8351C3.59289 14.8211 3.602 14.8165 3.63899 14.8116C3.67963 14.8063 3.68509 14.803 3.68509 14.7839C3.68509 14.764 3.68883 14.7622 3.73119 14.7622C3.77422 14.7622 3.77729 14.7607 3.77729 14.7393C3.77729 14.718 3.78036 14.7165 3.82339 14.7165C3.86642 14.7165 3.86949 14.7149 3.86949 14.6936C3.86949 14.6743 3.8738 14.6707 3.89716 14.6707C3.92051 14.6707 3.92482 14.6672 3.92482 14.6479C3.92482 14.6265 3.92789 14.625 3.97092 14.625C4.01347 14.625 4.01702 14.6233 4.01702 14.603C4.01702 14.5836 4.02234 14.5803 4.06259 14.5748C4.09989 14.5697 4.10866 14.565 4.11099 14.5488C4.11338 14.5321 4.12081 14.5285 4.15763 14.5262C4.19717 14.5237 4.20143 14.5212 4.20143 14.501C4.20143 14.4834 4.20621 14.4787 4.22383 14.4787C4.24006 14.4787 4.24706 14.473 4.24919 14.4581C4.2517 14.4405 4.25856 14.4371 4.29593 14.4347C4.33548 14.4322 4.33973 14.4298 4.33973 14.4096C4.33973 14.3908 4.3442 14.3872 4.36739 14.3872C4.39075 14.3872 4.39505 14.3836 4.39505 14.3643C4.39505 14.343 4.39812 14.3415 4.44115 14.3415C4.48418 14.3415 4.48725 14.3399 4.48725 14.3186C4.48725 14.2973 4.49032 14.2957 4.53336 14.2957C4.57639 14.2957 4.57946 14.2942 4.57946 14.2729C4.57946 14.2546 4.58407 14.25 4.60251 14.25C4.62062 14.25 4.62556 14.2453 4.62556 14.2283C4.62556 14.2092 4.63103 14.2059 4.67105 14.2006C4.70881 14.1957 4.71703 14.1912 4.71946 14.1743C4.72153 14.1598 4.72967 14.1531 4.74773 14.1511C4.76514 14.1491 4.77308 14.1429 4.77308 14.1313C4.77308 14.1181 4.78287 14.1132 4.81918 14.1082C4.85998 14.1027 4.86529 14.0994 4.86529 14.0799C4.86529 14.0616 4.86988 14.0579 4.89295 14.0579C4.91417 14.0579 4.92061 14.0538 4.92061 14.0402C4.92061 14.0262 4.92933 14.0212 4.9621 14.0163C4.99795 14.011 5.00359 14.0071 5.00359 13.9883C5.00359 13.9701 5.00825 13.9665 5.03125 13.9665C5.05461 13.9665 5.05891 13.9629 5.05891 13.9436C5.05891 13.9223 5.06198 13.9207 5.10501 13.9207C5.14805 13.9207 5.15112 13.9192 5.15112 13.8979C5.15112 13.8796 5.15573 13.875 5.17417 13.875C5.19261 13.875 5.19722 13.8704 5.19722 13.8521C5.19722 13.8308 5.20033 13.8293 5.24271 13.8293C5.28547 13.8293 5.28837 13.8278 5.29112 13.8041C5.2932 13.7861 5.29992 13.7781 5.31478 13.776C5.32769 13.7742 5.33552 13.7668 5.33552 13.7563C5.33552 13.7431 5.34534 13.7382 5.38162 13.7332C5.42241 13.7277 5.42773 13.7244 5.42773 13.7049C5.42773 13.6866 5.43232 13.6829 5.45539 13.6829C5.47874 13.6829 5.48305 13.6794 5.48305 13.6601C5.48305 13.6387 5.48612 13.6372 5.52915 13.6372C5.57218 13.6372 5.57525 13.6357 5.57525 13.6143C5.57525 13.596 5.57986 13.5915 5.5983 13.5915C5.61674 13.5915 5.62135 13.5869 5.62135 13.5686C5.62135 13.5493 5.62566 13.5457 5.64901 13.5457C5.67237 13.5457 5.67667 13.5422 5.67667 13.5229C5.67667 13.5019 5.68006 13.5 5.71816 13.5C5.75627 13.5 5.75965 13.4981 5.75965 13.4771C5.75965 13.4588 5.76427 13.4543 5.78271 13.4543C5.80098 13.4543 5.80576 13.4497 5.80576 13.432C5.80576 13.4145 5.8112 13.4091 5.83111 13.4069C5.84893 13.4048 5.85732 13.3981 5.85931 13.3842C5.86164 13.368 5.87041 13.3632 5.90771 13.3582C5.94796 13.3527 5.95328 13.3494 5.95328 13.3299C5.95328 13.3126 5.95813 13.3079 5.97633 13.3079C5.99477 13.3079 5.99938 13.3034 5.99938 13.2851C5.99938 13.2637 6.00245 13.2622 6.04549 13.2622C6.08852 13.2622 6.09159 13.2607 6.09159 13.2393C6.09159 13.221 6.0962 13.2165 6.11464 13.2165C6.13308 13.2165 6.13769 13.2119 6.13769 13.1936C6.13769 13.1753 6.1423 13.1707 6.16074 13.1707C6.17918 13.1707 6.18379 13.1662 6.18379 13.1479C6.18379 13.1286 6.1881 13.125 6.21145 13.125C6.23452 13.125 6.23911 13.1214 6.23911 13.103C6.23911 13.0835 6.24442 13.0803 6.28521 13.0747C6.326 13.0691 6.33131 13.0659 6.33131 13.0464C6.33131 13.029 6.33616 13.0244 6.35436 13.0244C6.37281 13.0244 6.37741 13.0198 6.37741 13.0015C6.37741 12.9834 6.38207 12.9787 6.39982 12.9787C6.41605 12.9787 6.42305 12.973 6.42518 12.9581C6.42729 12.9433 6.43533 12.9367 6.45348 12.9346C6.47107 12.9326 6.47884 12.9265 6.47884 12.9146C6.47884 12.9013 6.48814 12.8961 6.52033 12.8913C6.55618 12.886 6.56182 12.8821 6.56182 12.8633C6.56182 12.8461 6.56673 12.8415 6.58487 12.8415C6.60331 12.8415 6.60792 12.8369 6.60792 12.8186C6.60792 12.7993 6.61223 12.7957 6.63558 12.7957C6.65894 12.7957 6.66324 12.7922 6.66324 12.7729C6.66324 12.7546 6.66785 12.75 6.6863 12.75C6.70474 12.75 6.70935 12.7454 6.70935 12.7271C6.70935 12.7088 6.71396 12.7043 6.7324 12.7043C6.7506 12.7043 6.75545 12.6996 6.75545 12.6823C6.75545 12.6628 6.76076 12.6595 6.80155 12.654C6.84234 12.6484 6.84765 12.6451 6.84765 12.6257C6.84765 12.6083 6.8525 12.6037 6.8707 12.6037C6.88914 12.6037 6.89375 12.5991 6.89375 12.5808C6.89375 12.5625 6.89836 12.5579 6.9168 12.5579C6.93524 12.5579 6.93985 12.5534 6.93985 12.5351C6.93985 12.5158 6.94416 12.5122 6.96751 12.5122C6.99087 12.5122 6.99518 12.5086 6.99518 12.4893C6.99518 12.471 6.99979 12.4665 7.01823 12.4665C7.03667 12.4665 7.04128 12.4619 7.04128 12.4436C7.04128 12.4253 7.04589 12.4207 7.06433 12.4207C7.08277 12.4207 7.08738 12.4162 7.08738 12.3979C7.08738 12.3796 7.09199 12.375 7.11043 12.375C7.1287 12.375 7.13348 12.3704 7.13348 12.3527C7.13348 12.3353 7.13892 12.3299 7.15884 12.3276C7.17679 12.3255 7.18503 12.3188 7.18708 12.3046C7.18938 12.2885 7.19808 12.2833 7.23087 12.2784C7.26613 12.2732 7.27178 12.2693 7.27178 12.2505C7.27178 12.2333 7.27669 12.2287 7.29484 12.2287C7.31328 12.2287 7.31789 12.2241 7.31789 12.2058C7.31789 12.1875 7.3225 12.1829 7.34094 12.1829C7.35938 12.1829 7.36399 12.1784 7.36399 12.1601C7.36399 12.1419 7.36864 12.1372 7.38639 12.1372C7.40262 12.1372 7.40962 12.1315 7.41175 12.1166C7.41386 12.1019 7.4219 12.0952 7.44005 12.0931C7.45997 12.0909 7.46541 12.0855 7.46541 12.068C7.46541 12.0503 7.47019 12.0457 7.48846 12.0457C7.5069 12.0457 7.51151 12.0412 7.51151 12.0229C7.51151 12.0046 7.51612 12 7.53456 12C7.55403 12 7.55761 11.9957 7.55761 11.9726C7.55761 11.9494 7.5612 11.9451 7.58066 11.9451C7.5991 11.9451 7.60371 11.9405 7.60371 11.9223C7.60371 11.904 7.60832 11.8994 7.62677 11.8994C7.64521 11.8994 7.64982 11.8948 7.64982 11.8765C7.64982 11.8585 7.6545 11.8537 7.67182 11.8537C7.69078 11.8537 7.69467 11.8481 7.69996 11.8131C7.70488 11.7805 7.71012 11.7719 7.72636 11.7696C7.73902 11.7678 7.74771 11.7593 7.7495 11.7467C7.75129 11.7343 7.75998 11.7257 7.77255 11.7239C7.78681 11.7219 7.79359 11.7137 7.79565 11.6959C7.79794 11.6761 7.80338 11.6707 7.821 11.6707C7.8388 11.6707 7.84344 11.666 7.84344 11.6479C7.84344 11.6296 7.84805 11.625 7.86649 11.625C7.88493 11.625 7.88954 11.6204 7.88954 11.6021C7.88954 11.584 7.89419 11.5793 7.91198 11.5793C7.92961 11.5793 7.93504 11.5739 7.93734 11.5541C7.93942 11.5361 7.94615 11.5281 7.961 11.526C7.97602 11.5239 7.98175 11.517 7.98175 11.5009C7.98175 11.4836 7.9866 11.4787 8.00375 11.4787C8.02271 11.4787 8.0266 11.4731 8.03189 11.4381C8.03681 11.4055 8.04205 11.3969 8.05829 11.3946C8.07264 11.3926 8.07941 11.3844 8.08147 11.3666C8.08377 11.3469 8.08921 11.3415 8.10683 11.3415C8.12463 11.3415 8.12927 11.3367 8.12927 11.3186C8.12927 11.3003 8.13388 11.2957 8.15232 11.2957C8.17076 11.2957 8.17537 11.2912 8.17537 11.2729C8.17537 11.2546 8.17998 11.25 8.19842 11.25C8.21993 11.25 8.22147 11.247 8.22147 11.2043C8.22147 11.1616 8.22301 11.1585 8.24452 11.1585C8.26399 11.1585 8.26758 11.1543 8.26758 11.1311C8.26758 11.1083 8.27128 11.1037 8.28958 11.1037C8.30859 11.1037 8.31243 11.0981 8.31781 11.0625C8.32272 11.03 8.32778 11.0213 8.3419 11.0213C8.35562 11.0213 8.35978 11.015 8.35978 10.9939C8.35978 10.9707 8.36337 10.9665 8.38283 10.9665C8.40127 10.9665 8.40588 10.9619 8.40588 10.9436C8.40588 10.9255 8.41055 10.9207 8.42807 10.9207C8.44766 10.9207 8.45099 10.9155 8.45652 10.8755C8.46165 10.8385 8.4664 10.8298 8.48274 10.8275C8.49509 10.8258 8.50379 10.8171 8.50556 10.8047C8.50736 10.7922 8.51605 10.7836 8.52861 10.7818C8.54288 10.7798 8.54965 10.7716 8.55171 10.7538C8.554 10.7341 8.55945 10.7287 8.57706 10.7287C8.59486 10.7287 8.59951 10.7239 8.59951 10.7058C8.59951 10.6875 8.60412 10.6829 8.62256 10.6829C8.641 10.6829 8.64561 10.6784 8.64561 10.6601C8.64561 10.6418 8.65022 10.6372 8.66866 10.6372C8.6871 10.6372 8.69171 10.6326 8.69171 10.6143C8.69171 10.5963 8.69637 10.5915 8.71389 10.5915C8.73352 10.5915 8.73682 10.5862 8.74242 10.5457L8.74327 10.5396C8.74642 10.5169 8.76584 10.5 8.78877 10.5C8.82557 10.5 8.82903 10.498 8.83171 10.4748C8.83377 10.4571 8.84054 10.4489 8.85481 10.4469C8.86737 10.4451 8.87606 10.4365 8.87786 10.424C8.87965 10.4115 8.88833 10.4029 8.90091 10.4011C8.91348 10.3993 8.92216 10.3907 8.92396 10.3783C8.92599 10.3641 8.93427 10.3574 8.95218 10.3553C8.9721 10.3531 8.97754 10.3477 8.97754 10.3302C8.97754 10.3125 8.98232 10.3079 9.00059 10.3079C9.01903 10.3079 9.02364 10.3034 9.02364 10.2851C9.02364 10.2658 9.02795 10.2622 9.0513 10.2622C9.07253 10.2622 9.07896 10.2581 9.07896 10.2445C9.07896 10.2305 9.08768 10.2254 9.12045 10.2206C9.1563 10.2152 9.16194 10.2114 9.16194 10.1926C9.16194 10.1744 9.1666 10.1707 9.18961 10.1707C9.21296 10.1707 9.21727 10.1672 9.21727 10.1479C9.21727 10.1265 9.22034 10.125 9.26337 10.125C9.3064 10.125 9.30947 10.1235 9.30947 10.1021C9.30947 10.0838 9.31408 10.0793 9.33252 10.0793C9.35072 10.0793 9.35557 10.0746 9.35557 10.0573C9.35557 10.0378 9.36088 10.0345 9.40167 10.029C9.43771 10.0241 9.44777 10.019 9.44777 10.0061C9.44777 9.99317 9.4578 9.98815 9.49334 9.98331C9.53065 9.97822 9.53941 9.9735 9.54175 9.95729C9.54413 9.9407 9.55158 9.93705 9.5878 9.93474C9.62426 9.93241 9.63148 9.92883 9.6339 9.91187C9.63639 9.89451 9.64339 9.89139 9.6852 9.88901C9.72965 9.88647 9.7336 9.88442 9.7336 9.86385C9.7336 9.84308 9.73694 9.84146 9.7797 9.84146C9.82274 9.84146 9.82581 9.83994 9.82581 9.8186C9.82581 9.79624 9.82735 9.79573 9.89496 9.79573C9.96257 9.79573 9.96411 9.79522 9.96411 9.77287C9.96411 9.75124 9.96688 9.75 10.0148 9.75C10.0628 9.75 10.0655 9.74876 10.0655 9.72713C10.0655 9.70478 10.0671 9.70427 10.1347 9.70427C10.2012 9.70427 10.2038 9.70346 10.2038 9.68265C10.2038 9.66386 10.2094 9.66027 10.2466 9.65521C10.2701 9.65201 10.3137 9.64939 10.3434 9.64939C10.3901 9.64939 10.3975 9.64706 10.3975 9.63224C10.3975 9.61124 10.4296 9.60366 10.5185 9.60366C10.5742 9.60366 10.5819 9.6016 10.5819 9.58656C10.5819 9.56346 10.6192 9.55816 10.7824 9.55803L10.8909 9.55795C10.9036 9.55794 10.9138 9.5477 10.9138 9.53507C10.9138 9.52244 10.924 9.5122 10.9367 9.5122H11.4542C11.4661 9.5122 11.4762 9.50343 11.4779 9.49162C11.4798 9.47867 11.4883 9.46999 11.5008 9.46822C11.5171 9.46591 11.5219 9.45721 11.527 9.4202C11.5326 9.38028 11.5359 9.375 11.5555 9.375C11.576 9.375 11.5777 9.37148 11.5777 9.32927C11.5777 9.28658 11.5792 9.28354 11.6007 9.28354C11.6222 9.28354 11.6238 9.28049 11.6238 9.23781C11.6238 9.19512 11.6253 9.19207 11.6468 9.19207C11.6663 9.19207 11.6699 9.1878 11.6699 9.16463C11.6699 9.14147 11.6735 9.1372 11.6929 9.1372C11.7144 9.1372 11.716 9.13415 11.716 9.09146C11.716 9.04878 11.7175 9.04573 11.739 9.04573C11.7605 9.04573 11.7621 9.04269 11.7621 9C11.7621 8.95758 11.7637 8.95427 11.7846 8.95427C11.8054 8.95427 11.8074 8.95034 11.81 8.90625C11.8124 8.86502 11.8156 8.85783 11.8327 8.85542C11.8491 8.8531 11.8538 8.8444 11.859 8.8074C11.8638 8.77214 11.8689 8.7622 11.8819 8.7622C11.895 8.7622 11.9 8.75221 11.905 8.71646C11.9106 8.676 11.9139 8.67073 11.9335 8.67073C11.954 8.67073 11.9557 8.66721 11.9557 8.625C11.9557 8.58231 11.9572 8.57927 11.9787 8.57927C11.9982 8.57927 12.0018 8.575 12.0018 8.55183C12.0018 8.52866 12.0054 8.52439 12.0248 8.52439C12.0464 8.52439 12.0479 8.52134 12.0479 8.47866C12.0479 8.43597 12.0494 8.43293 12.0709 8.43293C12.0925 8.43293 12.094 8.42988 12.094 8.3872C12.094 8.34451 12.0955 8.34146 12.117 8.34146C12.1386 8.34146 12.1401 8.33842 12.1401 8.29573C12.1401 8.25305 12.1416 8.25 12.1631 8.25C12.1847 8.25 12.1862 8.24695 12.1862 8.20427C12.1862 8.16225 12.188 8.15854 12.2081 8.15854C12.2273 8.15854 12.2307 8.15312 12.236 8.11281C12.241 8.0755 12.2455 8.06707 12.2603 8.06707C12.2743 8.06707 12.2784 8.06082 12.2784 8.03963C12.2784 8.01675 12.2821 8.0122 12.3006 8.0122C12.3202 8.0122 12.3235 8.00693 12.3291 7.96646C12.3347 7.926 12.338 7.92073 12.3576 7.92073C12.3781 7.92073 12.3798 7.91721 12.3798 7.875C12.3798 7.83231 12.3814 7.82927 12.4029 7.82927C12.4247 7.82927 12.4259 7.82653 12.4259 7.77896C12.4259 7.7314 12.4272 7.72866 12.449 7.72866C12.4705 7.72866 12.472 7.72561 12.472 7.68293C12.472 7.64052 12.4737 7.6372 12.4946 7.6372C12.5149 7.6372 12.5174 7.63298 12.5199 7.59375C12.5223 7.55723 12.5259 7.54986 12.5427 7.54749C12.559 7.54518 12.5638 7.53648 12.5689 7.49947C12.5738 7.46393 12.5788 7.45427 12.5921 7.45427C12.6038 7.45427 12.61 7.44639 12.612 7.42912C12.6141 7.41131 12.6209 7.40313 12.6352 7.4011C12.6523 7.3987 12.6559 7.39153 12.6583 7.35537C12.6606 7.31904 12.6642 7.31206 12.6816 7.30961C12.6986 7.3072 12.7031 7.29905 12.7081 7.26159C12.7134 7.22189 12.7168 7.21646 12.736 7.21646C12.7561 7.21646 12.7579 7.21275 12.7579 7.17073C12.7579 7.12805 12.7594 7.125 12.7809 7.125C12.8024 7.125 12.804 7.12195 12.804 7.07927C12.804 7.03658 12.8055 7.03354 12.827 7.03354C12.8485 7.03354 12.8501 7.03049 12.8501 6.98781C12.8501 6.94512 12.8516 6.94207 12.8731 6.94207C12.8926 6.94207 12.8962 6.9378 12.8962 6.91463C12.8962 6.89147 12.8998 6.8872 12.9192 6.8872C12.9407 6.8872 12.9423 6.88415 12.9423 6.84146C12.9423 6.79878 12.9438 6.79573 12.9653 6.79573C12.9868 6.79573 12.9884 6.79269 12.9884 6.75C12.9884 6.70791 12.9901 6.70427 13.0104 6.70427C13.0301 6.70427 13.033 6.69912 13.0387 6.65396C13.0439 6.61292 13.0482 6.60366 13.0625 6.60366C13.0765 6.60366 13.0812 6.59457 13.086 6.55793C13.0914 6.51761 13.0948 6.5122 13.114 6.5122C13.1341 6.5122 13.1359 6.50848 13.1359 6.46646C13.1359 6.42378 13.1374 6.42073 13.1589 6.42073C13.1805 6.42073 13.182 6.41769 13.182 6.375C13.182 6.33231 13.1835 6.32927 13.205 6.32927C13.2245 6.32927 13.2281 6.325 13.2281 6.30183C13.2281 6.27866 13.2317 6.27439 13.2511 6.27439C13.2727 6.27439 13.2742 6.27134 13.2742 6.22866C13.2742 6.18597 13.2757 6.18293 13.2972 6.18293C13.3188 6.18293 13.3203 6.17988 13.3203 6.1372C13.3203 6.09451 13.3218 6.09146 13.3433 6.09146C13.3649 6.09146 13.3664 6.08842 13.3664 6.04573C13.3664 6.00352 13.3681 6 13.3886 6C13.4082 6 13.4115 5.99472 13.417 5.9548C13.4222 5.91779 13.4269 5.9091 13.4433 5.90678C13.46 5.90441 13.4637 5.89704 13.466 5.86052C13.4686 5.82129 13.471 5.81707 13.4914 5.81707C13.5123 5.81707 13.5139 5.81375 13.5139 5.77134C13.5139 5.72866 13.5155 5.72561 13.537 5.72561C13.5564 5.72561 13.56 5.72134 13.56 5.69817C13.56 5.675 13.5636 5.67073 13.5831 5.67073C13.6046 5.67073 13.6061 5.66769 13.6061 5.625C13.6061 5.58258 13.6078 5.57927 13.6287 5.57927C13.6494 5.57927 13.6515 5.57534 13.6541 5.53125C13.6565 5.48978 13.6596 5.48284 13.6771 5.48037C13.6942 5.47796 13.6978 5.4708 13.7002 5.43464C13.7025 5.3987 13.7062 5.39131 13.7229 5.38895C13.7392 5.38664 13.744 5.37794 13.7491 5.34093C13.754 5.30567 13.7591 5.29573 13.7721 5.29573C13.7851 5.29573 13.7902 5.28574 13.7951 5.25C13.8007 5.20954 13.804 5.20427 13.8237 5.20427C13.8422 5.20427 13.8459 5.19971 13.8459 5.17683C13.8459 5.15366 13.8494 5.14939 13.8689 5.14939C13.8904 5.14939 13.892 5.14634 13.892 5.10366C13.892 5.06097 13.8935 5.05793 13.915 5.05793C13.9365 5.05793 13.9381 5.05488 13.9381 5.0122C13.9381 4.96951 13.9396 4.96646 13.9611 4.96646C13.9826 4.96646 13.9842 4.96342 13.9842 4.92073C13.9842 4.87805 13.9857 4.875 14.0072 4.875C14.0287 4.875 14.0303 4.87195 14.0303 4.82927C14.0303 4.78725 14.032 4.78354 14.0521 4.78354C14.0714 4.78354 14.0747 4.77812 14.0801 4.73781C14.0849 4.70173 14.0898 4.69207 14.1032 4.69207C14.1165 4.69207 14.1214 4.68242 14.1262 4.64634C14.1312 4.60903 14.1357 4.60061 14.1504 4.60061C14.1644 4.60061 14.1686 4.59435 14.1686 4.57317C14.1686 4.55029 14.1722 4.54573 14.1907 4.54573C14.2104 4.54573 14.2137 4.54046 14.2193 4.5C14.2249 4.45954 14.2282 4.45427 14.2478 4.45427C14.2686 4.45427 14.27 4.451 14.27 4.40396C14.27 4.3564 14.2712 4.35366 14.293 4.35366C14.3145 4.35366 14.3161 4.35061 14.3161 4.30793C14.3161 4.26524 14.3176 4.2622 14.3391 4.2622C14.3607 4.2622 14.3622 4.25915 14.3622 4.21646C14.3622 4.17425 14.3639 4.17073 14.3844 4.17073C14.404 4.17073 14.4073 4.16546 14.4129 4.125C14.418 4.08831 14.4227 4.07927 14.4368 4.07927C14.4502 4.07927 14.4544 4.07272 14.4544 4.05183C14.4544 4.02866 14.458 4.02439 14.4774 4.02439C14.499 4.02439 14.5005 4.02134 14.5005 3.97866C14.5005 3.93625 14.5021 3.93293 14.523 3.93293C14.5434 3.93293 14.5459 3.92871 14.5484 3.88948C14.5508 3.85296 14.5544 3.84559 14.5712 3.84322C14.5875 3.84091 14.5923 3.83221 14.5974 3.7952C14.6029 3.75528 14.6062 3.75 14.6258 3.75C14.6463 3.75 14.648 3.74648 14.648 3.70427C14.648 3.66158 14.6496 3.65854 14.6711 3.65854C14.6926 3.65854 14.6941 3.65549 14.6941 3.6128C14.6941 3.57079 14.6959 3.56707 14.716 3.56707C14.7353 3.56707 14.7386 3.56166 14.744 3.52134C14.749 3.48403 14.7534 3.47561 14.7682 3.47561C14.7822 3.47561 14.7863 3.46935 14.7863 3.44817C14.7863 3.425 14.7899 3.42073 14.8094 3.42073C14.8309 3.42073 14.8324 3.41769 14.8324 3.375C14.8324 3.33258 14.8341 3.32927 14.855 3.32927C14.8757 3.32927 14.8778 3.32534 14.8804 3.28125C14.8827 3.24002 14.886 3.23283 14.9031 3.23041C14.9194 3.2281 14.9242 3.2194 14.9293 3.1824C14.9348 3.14247 14.9382 3.1372 14.9578 3.1372C14.9782 3.1372 14.98 3.13367 14.98 3.09146C14.98 3.04878 14.9815 3.04573 15.003 3.04573C15.0245 3.04573 15.0261 3.04269 15.0261 3C15.0261 2.95731 15.0276 2.95427 15.0491 2.95427C15.0686 2.95427 15.0722 2.95 15.0722 2.92683C15.0722 2.90366 15.0757 2.89939 15.0952 2.89939C15.1167 2.89939 15.1183 2.89634 15.1183 2.85366C15.1183 2.81097 15.1198 2.80793 15.1413 2.80793C15.1628 2.80793 15.1644 2.80488 15.1644 2.7622C15.1644 2.71951 15.1659 2.71646 15.1874 2.71646C15.2089 2.71646 15.2105 2.71342 15.2105 2.67073C15.2105 2.62805 15.212 2.625 15.2335 2.625C15.255 2.625 15.2566 2.62195 15.2566 2.57927C15.2566 2.53718 15.2583 2.53354 15.2786 2.53354C15.2983 2.53354 15.3012 2.52839 15.3069 2.48323C15.3126 2.43779 15.3154 2.43293 15.3356 2.43293C15.3563 2.43293 15.358 2.42952 15.358 2.3872C15.358 2.34451 15.3595 2.34146 15.381 2.34146C15.3995 2.34146 15.4041 2.33689 15.4041 2.3186C15.4041 2.30031 15.4087 2.29573 15.4271 2.29573C15.4486 2.29573 15.4502 2.29269 15.4502 2.25C15.4502 2.20731 15.4517 2.20427 15.4732 2.20427C15.495 2.20427 15.4963 2.20152 15.4963 2.15396C15.4963 2.1064 15.4975 2.10366 15.5193 2.10366C15.5408 2.10366 15.5424 2.10061 15.5424 2.05793C15.5424 2.01524 15.5439 2.0122 15.5654 2.0122C15.587 2.0122 15.5885 2.00915 15.5885 1.96646C15.5885 1.92425 15.5902 1.92073 15.6107 1.92073C15.6303 1.92073 15.6336 1.91546 15.6392 1.875C15.6442 1.83926 15.6492 1.82927 15.6623 1.82927C15.6753 1.82927 15.6803 1.81933 15.6852 1.78407C15.6904 1.74706 15.6951 1.73836 15.7115 1.73605C15.7255 1.73407 15.7323 1.72575 15.7343 1.70808C15.7366 1.68832 15.7421 1.68293 15.7597 1.68293C15.7805 1.68293 15.7821 1.67954 15.7821 1.6372C15.7821 1.59451 15.7837 1.59146 15.8052 1.59146C15.8267 1.59146 15.8282 1.58842 15.8282 1.54573C15.8282 1.50305 15.8298 1.5 15.8513 1.5C15.8728 1.5 15.8743 1.49695 15.8743 1.45427C15.8743 1.41185 15.876 1.40854 15.8969 1.40854C15.9176 1.40854 15.9197 1.40461 15.9222 1.36052C15.9246 1.31929 15.9279 1.3121 15.945 1.30968C15.9613 1.30737 15.9661 1.29867 15.9712 1.26166C15.9762 1.22547 15.981 1.21646 15.995 1.21646C16.0076 1.21646 16.0126 1.20999 16.0126 1.1936C16.0126 1.17543 16.0173 1.17073 16.0352 1.17073C16.0559 1.17073 16.058 1.16681 16.0606 1.12271C16.063 1.08106 16.0661 1.07431 16.0838 1.07181C16.1009 1.0694 16.1054 1.06124 16.1104 1.02379C16.1157 0.984082 16.1191 0.978659 16.1383 0.978659C16.1584 0.978659 16.1601 0.974945 16.1601 0.932927C16.1601 0.890241 16.1617 0.887195 16.1832 0.887195C16.2047 0.887195 16.2062 0.884149 16.2062 0.841464C16.2062 0.798778 16.2078 0.795732 16.2293 0.795732C16.2477 0.795732 16.2524 0.791159 16.2524 0.772866C16.2524 0.754573 16.257 0.75 16.2754 0.75C16.2969 0.75 16.2985 0.746954 16.2985 0.704268C16.2985 0.661582 16.3 0.658537 16.3215 0.658537C16.341 0.658537 16.3446 0.654265 16.3446 0.631098C16.3446 0.608278 16.3483 0.603659 16.3666 0.603659C16.3855 0.603659 16.3894 0.598052 16.3947 0.563076C16.3996 0.530543 16.4049 0.521918 16.4211 0.519631C16.4354 0.517601 16.4422 0.509424 16.4443 0.491616C16.4466 0.47186 16.452 0.466463 16.4696 0.466463C16.4874 0.466463 16.4921 0.461726 16.4921 0.443598C16.4921 0.425305 16.4967 0.420732 16.5151 0.420732C16.5336 0.420732 16.5382 0.416159 16.5382 0.397866C16.5382 0.379573 16.5428 0.375 16.5612 0.375C16.5795 0.375 16.5843 0.37039 16.5843 0.352738C16.5843 0.335259 16.5897 0.329863 16.6096 0.327585C16.6276 0.325537 16.6358 0.318823 16.6379 0.304591C16.6402 0.288476 16.6489 0.283281 16.6817 0.278396C16.7169 0.273156 16.7226 0.269296 16.7226 0.250482C16.7226 0.232335 16.7272 0.228659 16.7502 0.228659C16.7736 0.228659 16.7779 0.225101 16.7779 0.205793C16.7779 0.184454 16.781 0.182927 16.824 0.182927C16.867 0.182927 16.8701 0.181399 16.8701 0.160061C16.8701 0.138723 16.8732 0.137195 16.9162 0.137195C16.9592 0.137195 16.9623 0.135668 16.9623 0.114329C16.9623 0.0929909 16.9654 0.0914634 17.0084 0.0914634C17.0514 0.0914634 17.0545 0.089936 17.0545 0.0685976C17.0545 0.0461159 17.0557 0.0457317 17.1283 0.0457317Z" fill="#673E49"/>
</svg>
