<svg width="20" height="20" viewBox="0 0 20 20" fill="none" xmlns="http://www.w3.org/2000/svg">
<path d="M3.44833 4.99239C3.44833 4.72712 3.34293 4.47272 3.15533 4.28518L1.14336 2.27383C0.78806 1.91864 0.788015 1.34265 1.14326 0.987403C1.49847 0.632193 2.07438 0.632193 2.42959 0.987404L4.44096 2.99877C4.6285 3.1863 4.88285 3.29166 5.14807 3.29166H18.5909C18.7326 3.29165 18.8724 3.32477 18.999 3.38836C19.1256 3.45196 19.2356 3.54428 19.3203 3.65795C19.4049 3.77162 19.4617 3.9035 19.4863 4.04305C19.5109 4.18261 19.5025 4.32598 19.4619 4.46172L17.2799 11.7348C17.2238 11.9222 17.1088 12.0864 16.9519 12.2032C16.795 12.32 16.6046 12.383 16.409 12.383H6.17101C5.67152 12.383 5.26661 12.788 5.26661 13.2874C5.26661 13.7906 5.67728 14.197 6.18042 14.1918L16.3617 14.0859C16.8673 14.0806 17.2799 14.489 17.2799 14.9946C17.2799 15.4931 16.8784 15.8985 16.38 15.9033L4.35747 16.0196C4.11635 16.0196 3.88511 15.9238 3.71461 15.7533C3.54412 15.5828 3.44833 15.3516 3.44833 15.1104V4.99239ZM6.26661 5.10994C5.71432 5.10994 5.26661 5.55765 5.26661 6.10994V9.56476C5.26661 10.117 5.71432 10.5648 6.26661 10.5648H14.9886C15.4302 10.5648 15.8195 10.2751 15.9464 9.85211L16.9828 6.39728C17.1753 5.75567 16.6949 5.10994 16.025 5.10994H6.26661ZM4.81204 19.6561C4.45036 19.6561 4.1035 19.5125 3.84775 19.2567C3.59201 19.001 3.44833 18.6541 3.44833 18.2924C3.44833 17.9307 3.59201 17.5839 3.84775 17.3281C4.1035 17.0724 4.45036 16.9287 4.81204 16.9287C5.17372 16.9287 5.52058 17.0724 5.77632 17.3281C6.03207 17.5839 6.17574 17.9307 6.17574 18.2924C6.17574 18.6541 6.03207 19.001 5.77632 19.2567C5.52058 19.5125 5.17372 19.6561 4.81204 19.6561ZM15.7217 19.6561C15.36 19.6561 15.0131 19.5125 14.7574 19.2567C14.5017 19.001 14.358 18.6541 14.358 18.2924C14.358 17.9307 14.5017 17.5839 14.7574 17.3281C15.0131 17.0724 15.36 16.9287 15.7217 16.9287C16.0834 16.9287 16.4302 17.0724 16.686 17.3281C16.9417 17.5839 17.0854 17.9307 17.0854 18.2924C17.0854 18.6541 16.9417 19.001 16.686 19.2567C16.4302 19.5125 16.0834 19.6561 15.7217 19.6561Z" fill="#755D64"/>
</svg>
