<svg width="24" height="24" viewBox="0 0 24 24" fill="none" xmlns="http://www.w3.org/2000/svg">
<path d="M5.42008 14.4651L4.59733 17.5365L1.5902 17.6001C0.691514 15.9333 0.181763 14.0262 0.181763 11.9995C0.181763 10.0398 0.658368 8.19171 1.50318 6.56445H1.50383L4.18102 7.05528L5.35379 9.7164C5.10833 10.432 4.97454 11.2002 4.97454 11.9995C4.97464 12.8671 5.13178 13.6982 5.42008 14.4651Z" fill="#FBBB00"/>
<path d="M23.6116 9.79199C23.7474 10.5069 23.8181 11.2452 23.8181 11.9998C23.8181 12.8459 23.7292 13.6712 23.5597 14.4673C22.9844 17.1764 21.4811 19.542 19.3987 21.216L19.398 21.2154L16.026 21.0433L15.5487 18.0641C16.9305 17.2537 18.0104 15.9855 18.5793 14.4673H12.2598V9.79199H18.6715H23.6116Z" fill="#518EF8"/>
<path d="M19.398 21.2158L19.3986 21.2164C17.3733 22.8444 14.8006 23.8184 11.9999 23.8184C7.4993 23.8184 3.58633 21.3028 1.59021 17.6009L5.42008 14.4658C6.41812 17.1294 8.98761 19.0256 11.9999 19.0256C13.2947 19.0256 14.5078 18.6755 15.5486 18.0645L19.398 21.2158Z" fill="#28B446"/>
<path d="M19.5434 2.90241L15.7149 6.03681C14.6376 5.36345 13.3642 4.97447 11.9999 4.97447C8.91941 4.97447 6.30186 6.95757 5.35382 9.7167L1.50382 6.56475H1.50317C3.47007 2.77255 7.43239 0.181641 11.9999 0.181641C14.8675 0.181641 17.4967 1.20308 19.5434 2.90241Z" fill="#F14336"/>
</svg>
