<svg width="20" height="20" viewBox="0 0 20 20" fill="none" xmlns="http://www.w3.org/2000/svg">
<path d="M4.3385 7.38427C6.29945 7.38427 7.88911 5.82336 7.88911 3.89788C7.88911 3.26245 7.71598 2.66672 7.41351 2.15369C7.23574 1.85218 7.33273 1.43488 7.66838 1.33563C8.40678 1.11731 9.1895 1 10 1C14.473 1 18.1 4.57288 18.1 8.98088V15.1395C18.5971 15.1395 19 15.5352 19 16.0233C19 16.5113 18.5971 16.907 18.1 16.907H1.9C1.40294 16.907 1 16.5113 1 16.0233C1 15.5352 1.40294 15.1395 1.9 15.1395V8.98088C1.9 8.43505 1.95561 7.90203 2.06156 7.387C2.13084 7.05022 2.52721 6.91628 2.83985 7.05941C3.29517 7.26786 3.80299 7.38427 4.3385 7.38427Z" fill="#52353D"/>
<path d="M11.591 19.3529C12.0129 18.9386 12.25 18.3766 12.25 17.7907H7.75C7.75 18.3766 7.98705 18.9386 8.40901 19.3529C8.83097 19.7672 9.40326 20 10 20C10.5967 20 11.169 19.7672 11.591 19.3529Z" fill="#52353D"/>
<ellipse cx="4" cy="3.5" rx="3" ry="2.5" fill="#FFB800"/>
</svg>
