<svg width="40" height="40" viewBox="0 0 40 40" fill="none" xmlns="http://www.w3.org/2000/svg">
<rect width="40" height="40" rx="20" fill="#F0EFFF"/>
<path fill-rule="evenodd" clip-rule="evenodd" d="M14.6316 17.0759C15.952 14.4817 18.9489 13.0722 21.8736 13.8558C23.8158 14.3763 25.3016 15.7484 26.037 17.4676C26.3024 18.0882 27.0207 18.3761 27.6413 18.1107C28.2619 17.8452 28.5498 17.1269 28.2844 16.5063C27.2668 14.1272 25.2036 12.2175 22.5062 11.4948C18.4346 10.4038 14.2654 12.3739 12.4391 15.9947L11.2105 15.3889C10.8696 15.2208 10.4805 15.5057 10.5379 15.8814L11.1924 20.1665C11.2416 20.4887 11.5957 20.6642 11.8819 20.5084L15.7002 18.4289C16.0348 18.2467 16.025 17.763 15.6833 17.5945L14.6316 17.0759Z" fill="#4325FF"/>
<path fill-rule="evenodd" clip-rule="evenodd" d="M25.3684 22.9241C24.048 25.5183 21.0511 26.9278 18.1264 26.1442C16.1842 25.6237 14.6984 24.2516 13.963 22.5324C13.6976 21.9118 12.9793 21.6239 12.3587 21.8893C11.7381 22.1548 11.4502 22.8731 11.7156 23.4937C12.7332 25.8728 14.7964 27.7825 17.4938 28.5052C21.5654 29.5962 25.7346 27.6261 27.5609 24.0053L28.7895 24.6111C29.1304 24.7792 29.5195 24.4943 29.4621 24.1186L28.8076 19.8335C28.7584 19.5113 28.4043 19.3358 28.1181 19.4916L24.2998 21.5711C23.9652 21.7533 23.975 22.237 24.3167 22.4055L25.3684 22.9241Z" fill="#4325FF"/>
</svg>
