<svg width="27" height="42" viewBox="0 0 27 42" fill="none" xmlns="http://www.w3.org/2000/svg">
<path fill-rule="evenodd" clip-rule="evenodd" d="M6.92021 0.140158C3.13258 1.10624 0.5 4.65521 0.5 8.79476C0.5 11.0934 1.59229 12.999 3.95918 14.8305C5.8887 16.3235 11.7221 19.7124 11.9509 19.4735C12.015 19.4064 12.1721 18.246 12.2999 16.8947L12.5321 14.4374L9.98817 13.1286C6.70899 11.4416 5.86678 10.729 5.1149 9.00602C3.85224 6.11124 4.57025 2.83231 6.80995 1.26252C9.09249 -0.33735 12.1266 1.1339 12.8027 4.16837C12.9685 4.91246 13.1076 11.6114 13.1119 19.0555C13.1209 34.355 13.4002 33.0097 10.216 33.0097C7.17227 33.0097 4.57855 30.9793 4.8708 28.8255C4.98969 27.9497 5.20324 27.9141 7.80626 28.3369C9.19146 28.562 10.0367 27.9877 10.4322 26.5524C11.1339 24.0051 8.92577 21.63 6.3274 22.1376C3.07047 22.7739 1.5697 26.5379 3.13856 30.1356C4.30623 32.8133 7.41072 34.3927 11.5052 34.3927H13.1787L13.0661 38.1965C12.9555 41.9457 12.9645 42.0003 13.7011 42C14.434 41.9996 14.4483 41.9208 14.4483 37.903V33.8063L15.784 33.1791C17.2141 32.5076 19.3893 30.2677 20.204 28.6274C20.9266 27.1724 21.3693 24.2244 21.0973 22.6763C20.7566 20.7355 19.5959 18.986 17.6179 17.431C16.6634 16.6807 15.784 16.067 15.6635 16.067C15.5433 16.067 15.4446 17.4749 15.4446 19.1962C15.4446 21.4845 15.597 22.6224 16.0118 23.4319C16.8275 25.0231 16.7893 28.3577 15.9381 29.8701C14.5383 32.3568 14.4483 31.9163 14.4483 22.5698C14.4483 12.4779 14.7944 8.77159 15.9806 6.16103C17.0248 3.86271 18.315 2.84718 20.005 2.9931C21.4607 3.11861 21.825 3.96609 20.8871 5.04524C20.1492 5.89445 20.1133 7.9369 20.8237 8.6765C21.1153 8.98009 22.0046 9.30407 22.7997 9.39674C25.9812 9.76671 27.5255 6.40203 25.7551 2.95748C24.6645 0.835845 20.8798 0.158138 18.3508 1.63111C17.6162 2.05883 16.5323 3.15423 15.9418 4.06498L14.8688 5.72122L14.6721 4.69843C14.4437 3.50864 12.7396 1.36729 11.4933 0.703416C10.3163 0.0768828 8.19382 -0.184865 6.92021 0.140158Z" fill="#CFCFCF"/>
</svg>
