<svg width="28" height="44" viewBox="0 0 28 44" fill="none" xmlns="http://www.w3.org/2000/svg">
<path fill-rule="evenodd" clip-rule="evenodd" d="M6.91407 0.146832C2.83508 1.15891 0 4.87689 0 9.21355C0 11.6217 1.17631 13.618 3.72527 15.5367C5.80321 17.1008 12.0853 20.6511 12.3317 20.4008C12.4008 20.3305 12.5699 19.1149 12.7076 17.6993L12.9576 15.1249L10.218 13.7538C6.68661 11.9865 5.77961 11.2399 4.96989 9.43488C3.61011 6.40226 4.38335 2.96719 6.79533 1.32264C9.25345 -0.353414 12.5209 1.18789 13.2491 4.36686C13.4276 5.14639 13.5774 12.1643 13.5821 19.9629C13.5917 35.991 13.8925 34.5815 10.4634 34.5815C7.18552 34.5815 4.39228 32.4545 4.70702 30.1981C4.83505 29.2806 5.06502 29.2433 7.86828 29.6863C9.36003 29.9221 10.2702 29.3205 10.6962 27.8168C11.4519 25.1482 9.07391 22.6601 6.27566 23.1918C2.7682 23.8583 1.15199 27.8016 2.84152 31.5707C4.09902 34.3758 7.44232 36.0305 11.8518 36.0305H13.654L13.5327 40.0154C13.4136 43.9431 13.4233 44.0004 14.2165 44C15.0059 43.9996 15.0213 43.917 15.0213 39.7079V35.4161L16.4597 34.759C17.9998 34.0556 20.3424 31.709 21.2197 29.9906C21.9979 28.4663 22.4747 25.3779 22.1817 23.7562C21.8148 21.723 20.5648 19.89 18.4347 18.2611C17.4068 17.475 16.4597 16.8321 16.3299 16.8321C16.2004 16.8321 16.0942 18.3071 16.0942 20.1103C16.0942 22.5076 16.2584 23.6997 16.7051 24.5477C17.5835 26.2147 17.5423 29.708 16.6257 31.2925C15.1182 33.8976 15.0213 33.4362 15.0213 23.6446C15.0213 13.0721 15.3939 9.18929 16.6714 6.45442C17.7959 4.04665 19.1854 2.98276 21.0054 3.13563C22.573 3.26712 22.9654 4.15495 21.9554 5.28549C21.1607 6.17513 21.122 8.31485 21.887 9.08967C22.2011 9.40771 23.1588 9.74713 24.0151 9.8442C27.4413 10.2318 29.1044 6.70689 27.1978 3.09832C26.0233 0.875647 21.9475 0.165668 19.224 1.70879C18.4329 2.15687 17.2655 3.30443 16.6296 4.25855L15.474 5.99365L15.2623 4.92217C15.0162 3.67572 13.1812 1.4324 11.8389 0.736912C10.5714 0.0805439 8.28565 -0.193668 6.91407 0.146832Z" fill="#52353D"/>
</svg>
