<svg width="20" height="21" viewBox="0 0 20 21" fill="none" xmlns="http://www.w3.org/2000/svg">
<g clip-path="url(#clip0_817_6568)">
<path d="M10 7.5C9.44771 7.5 9 7.05228 9 6.5C9 5.94772 9.44771 5.5 10 5.5C10.5523 5.5 11 5.94772 11 6.5C11 7.05228 10.5523 7.5 10 7.5Z" fill="#52353D"/>
<path d="M11 10.5V14.5C11 15.0523 10.5523 15.5 10 15.5C9.44771 15.5 9 15.0523 9 14.5V10.5C9 9.94772 9.44771 9.5 10 9.5C10.5523 9.5 11 9.94772 11 10.5Z" fill="#52353D"/>
<path fill-rule="evenodd" clip-rule="evenodd" d="M20 10.5C20 16.0228 15.5228 20.5 10 20.5C4.47715 20.5 0 16.0228 0 10.5C0 4.97715 4.47715 0.5 10 0.5C15.5228 0.5 20 4.97715 20 10.5ZM18.2 10.5C18.2 15.0287 14.5287 18.7 10 18.7C5.47126 18.7 1.8 15.0287 1.8 10.5C1.8 5.97126 5.47126 2.3 10 2.3C14.5287 2.3 18.2 5.97126 18.2 10.5Z" fill="#52353D"/>
</g>
<defs>
<clipPath id="clip0_817_6568">
<rect width="20" height="20" fill="white" transform="translate(0 0.5)"/>
</clipPath>
</defs>
</svg>
