<svg width="20" height="19" viewBox="0 0 20 19" fill="none" xmlns="http://www.w3.org/2000/svg">
<path d="M10.5126 16.4159C10.1935 16.2373 9.80449 16.2373 9.48538 16.4159L5.18008 18.8259C4.39711 19.2641 3.46026 18.5835 3.6351 17.7034L4.59652 12.8639C4.66778 12.5052 4.54755 12.1353 4.27905 11.887L0.656125 8.53693C-0.00268936 7.92774 0.35512 6.82636 1.24618 6.72068L6.14612 6.13955C6.50925 6.09648 6.82393 5.86786 6.9771 5.53581L9.04417 1.05493C9.42001 0.240188 10.578 0.24019 10.9538 1.05493L13.0209 5.53581C13.1741 5.86786 13.4887 6.09648 13.8519 6.13955L18.7518 6.72068C19.6429 6.82636 20.0007 7.92774 19.3419 8.53693L15.7189 11.887C15.4504 12.1353 15.3302 12.5052 15.4015 12.8639L16.3629 17.7034C16.5377 18.5835 15.6009 19.2641 14.8179 18.8259L10.5126 16.4159Z" fill="#BAAEB1"/>
</svg>
