<svg width="21" height="20" viewBox="0 0 21 20" fill="none" xmlns="http://www.w3.org/2000/svg">
<path fill-rule="evenodd" clip-rule="evenodd" d="M15.125 12.5565C15.9407 11.7455 16.4963 10.7122 16.7213 9.58731C16.9463 8.46243 16.8308 7.29648 16.3892 6.23688C15.9477 5.17729 15.2 4.27165 14.2408 3.63447C13.2815 2.9973 12.1537 2.65721 11 2.65721C9.8463 2.65721 8.71851 2.9973 7.75924 3.63447C6.79996 4.27165 6.05229 5.17729 5.61076 6.23688C5.16923 7.29648 5.05368 8.46243 5.27871 9.58731C5.50374 10.7122 6.05926 11.7455 6.875 12.5565L10.295 15.9563C10.685 16.3441 11.315 16.3441 11.705 15.9563L15.125 12.5565ZM14.5294 9.92843C14.5294 9.4709 14.1585 9.1 13.701 9.1H12.1961C11.6438 9.1 11.1961 8.65228 11.1961 8.1V5.7912C11.1961 5.33096 10.823 4.95786 10.3627 4.95786C9.90251 4.95786 9.52941 5.33096 9.52941 5.7912V9.75685C9.52941 10.3091 9.97713 10.7569 10.5294 10.7569H13.701C14.1585 10.7569 14.5294 10.386 14.5294 9.92843Z" fill="#673E49"/>
<path fill-rule="evenodd" clip-rule="evenodd" d="M16.7213 9.58731C16.4963 10.7122 15.9407 11.7455 15.125 12.5565L11.705 15.9563C11.315 16.3441 10.685 16.3441 10.295 15.9563L6.875 12.5565C6.05926 11.7455 5.50374 10.7122 5.27871 9.58731C5.05368 8.46243 5.16923 7.29648 5.61076 6.23688C6.05229 5.17729 6.79996 4.27165 7.75924 3.63447C8.71851 2.9973 9.8463 2.65721 11 2.65721C12.1537 2.65721 13.2815 2.9973 14.2408 3.63447C15.2 4.27165 15.9477 5.17729 16.3892 6.23688C16.8308 7.29648 16.9463 8.46243 16.7213 9.58731ZM5.69667 13.7279L10.295 18.2991C10.685 18.6869 11.315 18.6869 11.705 18.2991L16.3033 13.7279C17.3522 12.6852 18.0665 11.3567 18.3559 9.91037C18.6453 8.46408 18.4967 6.96497 17.9291 5.60259C17.3614 4.24022 16.4001 3.07578 15.1668 2.25653C13.9334 1.43728 12.4834 1 11 1C9.51664 1 8.0666 1.43728 6.83323 2.25653C5.59987 3.07578 4.63858 4.24022 4.07092 5.60259C3.50326 6.96497 3.35473 8.46408 3.64411 9.91037C3.93349 11.3567 4.64779 12.6852 5.69667 13.7279Z" fill="#673E49"/>
</svg>
